<svg xmlns="http://www.w3.org/2000/svg" width="375" viewBox="0 0 375 375" height="375" version="1.0"><defs><clipPath id="a"><path d="M 74 141.519531 L 291 141.519531 L 291 337.132812 L 74 337.132812 Z M 74 141.519531"/></clipPath><clipPath id="b"><path d="M 365.300781 133.351562 L 374.914062 133.351562 L 374.914062 142.882812 L 365.300781 142.882812 Z M 365.300781 133.351562"/></clipPath></defs><path fill="#FFF" d="M-37.5 -37.5H412.5V412.5H-37.5z"/><path fill="#FFF" d="M-37.5 -37.5H412.5V412.5H-37.5z"/><path fill="#FFF" d="M-37.5 -37.5H412.5V412.5H-37.5z"/><path fill="#3D1A2A" d="M 294.992188 259.550781 C 295.816406 259.078125 296.710938 258.910156 297.484375 259.023438 C 297.566406 258.382812 297.8125 257.714844 298.257812 257.117188 C 298.800781 256.371094 299.507812 255.875 300.242188 255.652344 C 300.175781 255.03125 300.265625 254.34375 300.535156 253.671875 C 300.890625 252.804688 301.484375 252.125 302.160156 251.738281 C 301.925781 251.050781 301.882812 250.234375 302.113281 249.40625 C 302.613281 247.589844 304.148438 246.429688 305.550781 246.816406 C 306.957031 247.203125 307.691406 248.984375 307.191406 250.796875 C 306.910156 251.8125 306.300781 252.613281 305.574219 253.0625 C 305.8125 253.828125 305.78125 254.761719 305.410156 255.667969 C 304.972656 256.738281 304.167969 257.511719 303.304688 257.824219 C 303.328125 258.601562 303.058594 259.464844 302.503906 260.226562 C 301.691406 261.328125 300.496094 261.902344 299.449219 261.808594 C 299.242188 262.683594 298.59375 263.550781 297.613281 264.113281 C 295.980469 265.050781 294.074219 264.789062 293.347656 263.527344 C 292.621094 262.261719 293.359375 260.484375 294.992188 259.550781"/><path fill="#3D1A2A" d="M 292.550781 262.957031 C 292.425781 261.03125 289.042969 260.277344 287.734375 261.703125 C 286.421875 263.125 284.523438 261.988281 284.523438 261.988281 C 284.523438 261.988281 284.785156 265.75 288.738281 266.339844 C 291.582031 266.761719 292.675781 264.960938 292.550781 262.957031"/><path fill="#C94A5A" d="M 293.683594 263.503906 C 293.683594 263.503906 297.042969 264.796875 296.523438 266.421875 C 296.132812 267.652344 294.460938 266.929688 293.800781 267.179688 C 293.144531 267.421875 291.519531 268.476562 291.148438 267.089844 C 290.777344 265.707031 292.398438 263.527344 292.398438 263.527344 L 293.683594 263.503906"/><path fill="#C94A5A" d="M 293.234375 261.769531 C 293.234375 261.769531 295.546875 259.015625 294.300781 257.839844 C 293.363281 256.957031 292.25 258.398438 291.558594 258.503906 C 290.863281 258.605469 288.925781 258.472656 289.28125 259.863281 C 289.628906 261.253906 292.09375 262.378906 292.09375 262.378906 L 293.234375 261.769531"/><path fill="#E05E6F" d="M 291.449219 262.464844 C 291.566406 263.6875 292.515625 264.84375 293.585938 264.070312 C 294.652344 263.292969 293.523438 261.75 292.945312 261.324219 C 292.363281 260.898438 291.371094 261.585938 291.449219 262.464844"/><path fill="#3D1A2A" d="M 288.183594 251.582031 C 289.113281 251.398438 290.015625 251.527344 290.714844 251.882812 C 290.992188 251.304688 291.449219 250.753906 292.0625 250.324219 C 292.808594 249.800781 293.652344 249.554688 294.410156 249.578125 C 294.546875 248.96875 294.851562 248.351562 295.324219 247.800781 C 295.945312 247.097656 296.726562 246.648438 297.488281 246.496094 C 297.488281 245.769531 297.71875 244.988281 298.199219 244.273438 C 299.253906 242.714844 301.082031 242.117188 302.285156 242.929688 C 303.492188 243.746094 303.613281 245.667969 302.558594 247.226562 C 301.964844 248.101562 301.128906 248.660156 300.296875 248.847656 C 300.269531 249.652344 299.941406 250.523438 299.300781 251.261719 C 298.535156 252.136719 297.53125 252.609375 296.609375 252.625 C 296.378906 253.371094 295.847656 254.105469 295.074219 254.644531 C 293.953125 255.421875 292.636719 255.578125 291.675781 255.152344 C 291.195312 255.914062 290.300781 256.527344 289.191406 256.742188 C 287.34375 257.105469 285.625 256.242188 285.34375 254.816406 C 285.0625 253.386719 286.335938 251.941406 288.183594 251.582031"/><path fill="#3D1A2A" d="M 284.773438 254.019531 C 285.277344 252.148438 282.320312 250.351562 280.617188 251.273438 C 278.917969 252.195312 277.488281 250.511719 277.488281 250.511719 C 277.488281 250.511719 276.519531 254.152344 280.078125 255.984375 C 282.625 257.308594 284.25 255.953125 284.773438 254.019531"/><path fill="#C94A5A" d="M 285.671875 254.902344 C 285.671875 254.902344 288.433594 257.203125 287.417969 258.582031 C 286.648438 259.621094 285.296875 258.390625 284.597656 258.414062 C 283.894531 258.4375 282.019531 258.910156 282.113281 257.476562 C 282.210938 256.050781 284.441406 254.503906 284.441406 254.503906 L 285.671875 254.902344"/><path fill="#C94A5A" d="M 285.800781 253.113281 C 285.800781 253.113281 288.878906 251.25 288.082031 249.738281 C 287.476562 248.59375 285.960938 249.605469 285.269531 249.480469 C 284.578125 249.351562 282.792969 248.605469 282.675781 250.03125 C 282.558594 251.464844 284.527344 253.320312 284.527344 253.320312 L 285.800781 253.113281"/><path fill="#E05E6F" d="M 283.894531 253.203125 C 283.605469 254.394531 284.132812 255.789062 285.394531 255.398438 C 286.660156 255.011719 286.082031 253.1875 285.675781 252.597656 C 285.261719 252.007812 284.101562 252.34375 283.894531 253.203125"/><path fill="#654E2D" d="M 286.65625 286.324219 C 273.550781 291.769531 264.109375 283.933594 264.484375 284.292969 C 264.347656 282.871094 275.035156 288.734375 285.21875 284.210938 C 293.976562 276.695312 297.890625 266.730469 298.726562 267.378906 C 299.007812 267.414062 296.625 277.671875 286.65625 286.324219"/><path fill="#BE8F7F" d="M 269.980469 286.695312 C 269.019531 289.144531 265.371094 290.003906 261.828125 288.617188 C 258.292969 287.230469 256.203125 284.117188 257.164062 281.667969 C 258.125 279.21875 261.773438 278.359375 265.3125 279.746094 C 268.851562 281.136719 270.941406 284.246094 269.980469 286.695312"/><path fill="#A44895" d="M 303.535156 261.546875 C 305.59375 263.191406 304.097656 266.605469 299.90625 277.984375 C 299.90625 277.984375 294.285156 271.957031 288.710938 275.476562 C 288.710938 275.476562 291.214844 268.886719 295.484375 264.316406 C 299.75 259.753906 303.535156 261.546875 303.535156 261.546875"/><path fill="#743486" d="M 294.875 274.109375 C 291.085938 272.992188 288.417969 275.363281 288.710938 275.476562 C 288.929688 275.882812 291.378906 274.375 294.507812 275.332031 C 297.5625 276.355469 299.652344 278.25 299.90625 277.984375 C 300.167969 277.796875 298.394531 275.3125 294.875 274.109375"/><path fill="#C17ABB" d="M 302.289062 269.578125 C 300.6875 274.101562 299.566406 277.859375 299.90625 277.984375 C 300.226562 278.097656 301.882812 274.558594 303.5 270 C 305.738281 265.59375 304.5625 260.792969 303.535156 261.546875 C 304.027344 261.636719 304.367188 264.941406 302.289062 269.578125"/><path fill="#654E2D" d="M 94.066406 268.015625 C 94.390625 267.796875 89.464844 275 84.375 275.53125 C 84.28125 274.460938 84.195312 273.425781 84.113281 272.472656 C 88.613281 272.464844 94.359375 266.886719 94.066406 268.015625"/><path fill="#DDF1D4" d="M 72.835938 273.726562 C 64.25 267.277344 58.015625 254.546875 57.230469 255.289062 C 53.730469 259.421875 53.183594 270.113281 70.597656 282.207031 C 73.964844 284.546875 88.492188 277.035156 90.699219 274.859375 C 89.996094 274.367188 88.019531 271.601562 87.535156 270.824219 C 85.804688 271.917969 74.449219 274.941406 72.835938 273.726562"/><path fill="#F4CA9D" d="M 92.6875 269.101562 C 94.382812 270.960938 98.171875 270.277344 101.152344 267.574219 C 104.136719 264.859375 105.171875 261.152344 103.484375 259.285156 C 101.785156 257.425781 97.996094 258.113281 95.015625 260.820312 C 92.035156 263.527344 90.992188 267.234375 92.6875 269.101562"/><path fill="#66B93A" d="M 53.109375 248.402344 C 53.109375 248.402344 55.359375 249.082031 60.96875 255.90625 C 63.296875 258.730469 69.753906 268.324219 69.753906 268.324219 C 69.753906 268.324219 61.710938 267.828125 56.511719 273.496094 C 56.511719 273.496094 54.824219 292.570312 54.320312 305.335938 C 54.320312 305.335938 25.101562 310.515625 7.027344 298.507812 C 7.027344 298.507812 8.511719 287.398438 14.003906 272.609375 C 16.285156 266.472656 12.917969 263.113281 15.113281 258.214844 C 18.429688 250.824219 28.054688 243.132812 33.625 243.648438 C 42.890625 244.507812 53.109375 248.402344 53.109375 248.402344"/><path fill="#5DB339" d="M 10.902344 281.875 C 7.925781 291.800781 7.027344 298.507812 7.027344 298.507812 C 25.101562 310.515625 54.320312 305.335938 54.320312 305.335938 C 54.535156 299.871094 54.96875 293.25 55.394531 287.460938 C 41.167969 292.792969 24.039062 290.019531 10.902344 281.875"/><path fill="#58AD37" d="M 8.445312 291.167969 C 7.394531 295.753906 7.027344 298.507812 7.027344 298.507812 C 25.101562 310.515625 54.320312 305.335938 54.320312 305.335938 C 54.390625 303.585938 54.484375 301.714844 54.589844 299.796875 C 54.554688 299.800781 54.519531 299.808594 54.484375 299.808594 C 38.484375 300.914062 20.941406 300.789062 8.445312 291.167969"/><path fill="#58AB37" d="M 33.625 243.648438 C 42.890625 244.507812 53.109375 248.402344 53.109375 248.402344 C 53.109375 248.402344 54.640625 248.875 58.320312 252.859375 C 47.648438 260.503906 35.675781 253.839844 26.433594 246.019531 C 28.640625 244.300781 31.066406 243.410156 33.625 243.648438"/><path fill="#FFF" d="M 52.898438 246.253906 C 52.898438 246.253906 53.585938 260.089844 44.628906 257.617188 C 35.675781 255.152344 34.574219 242.261719 34.574219 242.261719 L 52.898438 246.253906"/><path fill="#E3B488" d="M 49.730469 248.582031 C 49.730469 248.582031 51.015625 255.917969 45.226562 254.726562 C 39.433594 253.527344 36.433594 243.414062 36.433594 243.414062 L 49.730469 248.582031"/><path fill="#A0C46F" d="M 56.113281 267.492188 C 55.890625 271.6875 55.425781 281.933594 55.730469 281.898438 C 56.140625 281.855469 57.199219 271.617188 57.417969 267.566406 C 57.585938 263.511719 58.328125 260.335938 58.050781 260.214844 C 57.664062 260.039062 56.28125 263.289062 56.113281 267.492188"/><path fill="#654E2D" d="M 12.597656 276.664062 C 15.691406 290.816406 27.78125 294.148438 27.261719 294.042969 C 28.53125 293.332031 17.371094 287.808594 15.207031 276.636719 C 16.386719 264.902344 22.441406 255.800781 21.410156 255.476562 C 21.210938 255.269531 14.015625 263.261719 12.597656 276.664062"/><path fill="#DDF1D4" d="M 17.234375 275.65625 C 18.414062 263.917969 25.898438 256.316406 22.507812 255.121094 C 17.648438 253.109375 11.636719 263.882812 10.214844 277.292969 C 11.546875 283.375 15.523438 289.425781 18.460938 292.097656 C 19.066406 291.730469 22.253906 288.5 22.996094 288.269531 C 20.257812 285.429688 18.242188 280.84375 17.234375 275.65625"/><path fill="#66B93A" d="M 25.257812 251.382812 C 27.402344 253.011719 25.953125 256.53125 21.941406 268.253906 C 21.941406 268.253906 16.0625 262.230469 10.449219 265.957031 C 10.449219 265.957031 12.851562 259.171875 17.105469 254.402344 C 21.351562 249.640625 25.257812 251.382812 25.257812 251.382812"/><path fill="#3C9339" d="M 16.710938 264.414062 C 12.820312 263.367188 10.152344 265.851562 10.449219 265.957031 C 10.683594 266.367188 13.152344 264.769531 16.367188 265.675781 C 19.511719 266.648438 21.691406 268.53125 21.941406 268.253906 C 22.210938 268.054688 20.339844 265.5625 16.710938 264.414062"/><path fill="#A0C46F" d="M 24.175781 259.613281 C 22.652344 264.265625 21.589844 268.132812 21.941406 268.253906 C 22.273438 268.363281 23.875 264.710938 25.425781 260.011719 C 27.605469 255.460938 26.292969 250.582031 25.257812 251.382812 C 25.765625 251.464844 26.191406 254.828125 24.175781 259.613281"/><path fill="#F4CA9D" d="M 22.589844 290.769531 C 21.0625 292.773438 22.425781 296.375 25.628906 298.824219 C 28.832031 301.257812 32.667969 301.621094 34.191406 299.617188 C 35.722656 297.613281 34.363281 294.011719 31.15625 291.570312 C 27.953125 289.125 24.117188 288.769531 22.589844 290.769531"/><path fill="#28589E" d="M 44.460938 303.4375 C 37.09375 303.753906 26.765625 300.574219 18.859375 297.222656 C 10.957031 293.867188 0.09375 295.128906 3.867188 305.3125 C 7.644531 315.492188 27.324219 319.8125 27.324219 319.8125 C 27.324219 319.8125 60.15625 323.628906 72.019531 312.019531 C 83.882812 300.410156 71.246094 294.234375 64.402344 295.546875 C 57.558594 296.863281 47.941406 303.292969 44.460938 303.4375"/><path fill="#587ABC" d="M 23.917969 316.03125 C 32.855469 318.851562 40.589844 317.914062 40.496094 317.625 C 40.472656 317.1875 33.027344 317.511719 24.296875 314.761719 C 15.585938 312.113281 8.96875 308.695312 8.792969 309.023438 C 8.597656 309.324219 15.035156 313.328125 23.917969 316.03125"/><path fill="#587ABC" d="M 56.359375 300.996094 C 51.355469 305.710938 46.242188 308.367188 46.453125 308.726562 C 46.558594 309.015625 52.03125 306.882812 57.289062 301.941406 C 62.148438 296.964844 67.933594 295.757812 67.796875 295.398438 C 67.863281 295.027344 61.5625 295.703125 56.359375 300.996094"/><path fill="#654E2D" d="M 46.617188 314.210938 C 47.34375 313.851562 48.058594 313.496094 48.765625 313.136719 L 50.097656 315.910156 C 49.398438 316.273438 48.691406 316.640625 47.964844 316.992188 C 35.382812 323.316406 23.59375 323.410156 23.679688 322.675781 C 23.609375 321.6875 34.519531 320.289062 46.617188 314.210938"/><path fill="#587ABC" d="M 50.050781 313.984375 C 48.53125 310.914062 46.207031 309.109375 46.085938 309.316406 C 45.726562 309.671875 47.441406 311.6875 48.882812 314.609375 C 50.476562 317.457031 51.492188 319.941406 51.875 319.824219 C 52.195312 319.742188 51.714844 316.972656 50.050781 313.984375"/><path fill="#654E2D" d="M 45.445312 313.199219 C 59.1875 316.765625 70.59375 317.167969 70.648438 318.082031 C 70.757812 318.878906 58.75 319.855469 44.722656 316.207031 C 43.648438 315.941406 42.605469 315.671875 41.578125 315.394531 L 42.53125 312.472656 C 43.488281 312.710938 44.457031 312.953125 45.445312 313.199219"/><path fill="#587ABC" d="M 42.492188 310.265625 C 41.742188 314 40.953125 316.179688 41.394531 316.382812 C 41.601562 316.523438 43.003906 314.441406 43.789062 310.53125 C 44.707031 306.65625 44.25 303.375 43.941406 303.410156 C 43.519531 303.414062 43.378906 306.542969 42.492188 310.265625"/><path fill="#27589A" d="M 69.054688 318.804688 C 69.054688 318.804688 79.441406 323.734375 80.496094 321.328125 C 81.558594 318.910156 81.613281 311.460938 80.621094 309.765625 C 79.636719 308.066406 67.917969 316.285156 69.054688 318.804688"/><path fill="#27589A" d="M 25.109375 322.644531 C 25.109375 322.644531 16.480469 330.242188 14.800781 328.214844 C 13.117188 326.179688 11.019531 319.035156 11.503906 317.132812 C 11.984375 315.226562 25.511719 319.914062 25.109375 322.644531"/><path fill="#F271BC" d="M 254.148438 153.839844 C 254.148438 153.839844 262.792969 151.628906 269.859375 143.597656 C 272.511719 140.59375 283.113281 129.960938 293.636719 133.71875 C 304.160156 137.480469 309.117188 141.976562 309.132812 145.253906 C 309.152344 148.527344 288.878906 192.5625 287.992188 199.78125 C 287.109375 207 255.253906 156.144531 254.148438 153.839844"/><path fill="#EE59B4" d="M 267.773438 145.769531 C 261.203125 152.03125 254.148438 153.839844 254.148438 153.839844 C 255.253906 156.144531 287.109375 207 287.992188 199.78125 C 288.476562 195.835938 294.742188 180.917969 300.328125 167.648438 C 295.945312 167.566406 291.5625 166.546875 287.75 164.769531 C 279.601562 161.277344 270.960938 154.800781 267.773438 145.769531"/><path fill="#E952B1" d="M 254.402344 153.769531 C 254.238281 153.816406 254.148438 153.839844 254.148438 153.839844 C 255.253906 156.144531 287.109375 207 287.992188 199.78125 C 288.289062 197.386719 290.71875 190.925781 293.835938 183.25 C 276.804688 181.972656 262.617188 169.101562 254.402344 153.769531"/><path fill="#FFF" d="M 293.761719 130.972656 C 292.378906 132.730469 290.785156 135.804688 290.785156 139 C 290.785156 141.324219 291.625 143.707031 294.015625 145.683594 C 299.566406 150.277344 306.335938 146.121094 309.464844 142.941406 L 310.871094 141.507812 L 309.464844 140.074219 C 307.957031 138.546875 300.214844 130.882812 295.664062 130.214844 L 294.492188 130.042969 L 293.761719 130.972656"/><path fill="#E3B488" d="M 295.367188 132.234375 C 295.367188 132.234375 289.683594 139.449219 295.320312 144.113281 C 300.953125 148.777344 308.007812 141.507812 308.007812 141.507812 C 308.007812 141.507812 299.472656 132.835938 295.367188 132.234375"/><path fill="#F08521" d="M 343.785156 131.679688 C 343.785156 131.679688 349.714844 136.816406 347.964844 142.328125 C 346.222656 147.84375 339.8125 155.003906 330.699219 156.648438 C 321.585938 158.292969 319.089844 163.605469 323.269531 166.6875 C 327.449219 169.765625 328.714844 164.527344 327.414062 163.808594 C 326.117188 163.089844 324.328125 163.980469 324.328125 163.980469 C 324.328125 163.980469 325.839844 161.722656 328 163.160156 C 330.15625 164.597656 328.375 171.273438 322.449219 168.808594 C 322.449219 168.808594 323.097656 173.398438 319.945312 176.34375 C 316.796875 179.289062 308.949219 177.921875 308.949219 174.359375 C 308.949219 170.796875 313.503906 170.867188 313.503906 170.867188 C 313.503906 170.867188 309.601562 172.269531 310.117188 173.949219 C 310.628906 175.625 317.175781 173.609375 315.699219 169.359375 C 314.222656 165.109375 310.933594 157.574219 314.425781 153.671875 C 317.921875 149.765625 332.714844 146.714844 332.582031 141.132812 C 332.449219 135.550781 340.976562 130.101562 343.785156 131.679688"/><path fill="#F4BF2C" d="M 324.355469 153.089844 C 324.375 153.066406 326.203125 152.128906 329.613281 152.199219 C 332.839844 152.007812 337.980469 152.277344 342.242188 148.890625 C 346.234375 145.34375 347.363281 140.066406 346.359375 136.78125 C 345.421875 133.441406 343.667969 131.996094 343.660156 132.0625 C 343.546875 132.121094 345.136719 133.65625 345.914062 136.890625 C 346.773438 140.039062 345.589844 145.046875 341.824219 148.394531 C 337.839844 151.582031 332.839844 151.449219 329.585938 151.738281 C 326.175781 151.78125 324.214844 152.933594 324.355469 153.089844"/><path fill="#F4BF2C" d="M 341.570312 145.304688 C 341.667969 145.496094 343.78125 142.804688 343.222656 138.957031 C 342.757812 135.222656 341.050781 132.640625 340.921875 132.742188 C 340.742188 132.820312 342.140625 135.472656 342.582031 139.03125 C 343.105469 142.648438 341.402344 145.230469 341.570312 145.304688"/><path fill="#F4BF2C" d="M 318.597656 156.046875 C 318.722656 156.160156 319.59375 154.234375 322.398438 152.847656 C 325.167969 151.355469 329.589844 151.273438 334.234375 149.730469 C 339.480469 148.183594 340.207031 142.457031 340.179688 139.609375 C 340.199219 136.4375 339.683594 134.523438 339.613281 134.539062 C 339.507812 134.554688 339.851562 136.484375 339.722656 139.601562 C 339.59375 142.480469 338.882812 147.710938 334.007812 149.125 C 329.558594 150.609375 325.019531 150.785156 322.195312 152.441406 C 319.304688 154.007812 318.566406 156.089844 318.597656 156.046875"/><path fill="#F4BF2C" d="M 322.449219 168.808594 C 322.800781 168.605469 319.390625 166.71875 319.097656 162.6875 C 319.015625 158.691406 321.738281 156.152344 321.476562 156.066406 C 321.515625 155.902344 318.40625 158.285156 318.453125 162.722656 C 318.847656 167.238281 322.632812 168.894531 322.449219 168.808594"/><path fill="#F4BF2C" d="M 310.117188 173.949219 C 310.089844 173.855469 309.859375 175.023438 311.304688 175.699219 C 312.582031 176.472656 315.214844 175.949219 316.582031 173.660156 C 320.34375 168.753906 312.917969 161.628906 316.367188 154.699219 C 321.230469 148.777344 330.140625 150.785156 333.699219 146.527344 C 337.195312 142.210938 334.523438 138.496094 334.789062 138.777344 C 334.402344 138.5625 336.738281 142.324219 333.367188 146.207031 C 330.039062 150.226562 321.257812 147.957031 315.8125 154.351562 C 312.234375 162.089844 319.75 168.949219 316.199219 173.410156 C 314.957031 175.574219 312.632812 176.097656 311.410156 175.46875 C 310.050781 174.914062 310.183594 173.902344 310.117188 173.949219"/><path fill="#F4BF2C" d="M 311.253906 177.082031 C 310.695312 177.320312 316.136719 179.589844 319.589844 174.800781 C 322.617188 169.9375 319.402344 165.558594 319.503906 165.882812 C 319.140625 165.769531 321.839844 170.09375 319.054688 174.4375 C 316 178.773438 310.953125 177.039062 311.253906 177.082031"/><path fill="#7140A1" d="M 307.796875 143.273438 C 307.796875 143.273438 298.925781 149.800781 299.984375 159.273438 C 301.050781 168.753906 308.890625 172.492188 309.699219 171.699219 C 310.507812 170.898438 310.644531 161.992188 311.859375 160.476562 C 311.859375 160.476562 316.800781 165.804688 321.410156 160.617188 C 326.023438 155.433594 324.613281 149.804688 321.089844 148.492188 C 317.566406 147.191406 309.632812 144.8125 307.796875 143.273438"/><path fill="#F08521" d="M 294.199219 96.078125 C 294.199219 96.078125 287.90625 91.390625 282.894531 94.28125 C 277.886719 97.167969 272.261719 104.960938 272.609375 114.210938 C 272.953125 123.460938 268.304688 127.042969 264.402344 123.621094 C 260.488281 120.199219 265.339844 117.839844 266.320312 118.957031 C 267.300781 120.074219 266.8125 122.003906 266.8125 122.003906 C 266.8125 122.003906 268.699219 120.046875 266.832031 118.246094 C 264.960938 116.449219 258.820312 119.621094 262.5 124.878906 C 262.5 124.878906 257.878906 125.226562 255.671875 128.9375 C 253.46875 132.644531 256.492188 140.011719 259.972656 139.25 C 263.453125 138.484375 262.40625 134.046875 262.40625 134.046875 C 262.40625 134.046875 261.871094 138.167969 260.121094 138.023438 C 258.371094 137.882812 258.945312 131.058594 263.410156 131.585938 C 267.875 132.117188 275.945312 133.710938 279.011719 129.460938 C 282.078125 125.214844 281.878906 110.109375 287.367188 109.042969 C 292.851562 107.980469 296.34375 98.484375 294.199219 96.078125"/><path fill="#F4BF2C" d="M 277.449219 119.644531 C 277.46875 119.621094 277.988281 117.632812 277.191406 114.320312 C 276.683594 111.128906 275.320312 106.167969 277.714844 101.28125 C 280.320312 96.621094 285.234375 94.386719 288.664062 94.65625 C 292.125 94.855469 293.910156 96.261719 293.851562 96.285156 C 293.816406 96.40625 291.976562 95.1875 288.652344 95.113281 C 285.394531 94.957031 280.75 97.183594 278.289062 101.582031 C 276.027344 106.152344 277.234375 111.007812 277.644531 114.246094 C 278.339844 117.589844 277.628906 119.746094 277.449219 119.644531"/><path fill="#F4BF2C" d="M 281.367188 101.164062 C 281.15625 101.113281 283.332031 98.472656 287.210938 98.1875 C 290.953125 97.84375 293.84375 98.957031 293.773438 99.101562 C 293.734375 99.292969 290.84375 98.496094 287.277344 98.832031 C 283.625 99.097656 281.476562 101.308594 281.367188 101.164062"/><path fill="#F4BF2C" d="M 275.800781 125.898438 C 275.652344 125.804688 277.351562 124.539062 278.101562 121.5 C 278.96875 118.476562 278.101562 114.144531 278.609375 109.277344 C 278.996094 103.828125 284.433594 101.882812 287.21875 101.300781 C 290.324219 100.605469 292.300781 100.691406 292.296875 100.765625 C 292.308594 100.871094 290.347656 100.949219 287.332031 101.746094 C 284.542969 102.488281 279.585938 104.308594 279.25 109.367188 C 278.75 114.035156 279.558594 118.5 278.546875 121.617188 C 277.632812 124.769531 275.761719 125.941406 275.800781 125.898438"/><path fill="#F4BF2C" d="M 262.5 124.878906 C 262.621094 124.492188 265.195312 127.414062 269.199219 126.835938 C 273.117188 126.054688 275.019531 122.859375 275.152344 123.09375 C 275.308594 123.023438 273.648438 126.566406 269.300781 127.472656 C 264.804688 128.054688 262.378906 124.714844 262.5 124.878906"/><path fill="#F4BF2C" d="M 260.121094 138.023438 C 260.21875 138.027344 259.128906 138.507812 258.15625 137.234375 C 257.128906 136.15625 257.070312 133.472656 259.019531 131.644531 C 263.003906 126.925781 271.558594 132.644531 277.589844 127.785156 C 282.332031 121.773438 278.460938 113.503906 281.859375 109.113281 C 285.320312 104.773438 289.527344 106.582031 289.191406 106.390625 C 289.484375 106.71875 285.3125 105.242188 282.238281 109.367188 C 279.027344 113.480469 283.125 121.5625 278.042969 128.253906 C 271.253906 133.414062 262.941406 127.542969 259.34375 131.96875 C 257.5 133.644531 257.480469 136.023438 258.363281 137.085938 C 259.195312 138.292969 260.148438 137.949219 260.121094 138.023438"/><path fill="#F4BF2C" d="M 256.816406 137.582031 C 256.703125 138.183594 253.320312 133.347656 257.257812 128.953125 C 261.355469 124.960938 266.328125 127.15625 265.992188 127.128906 C 266.175781 127.457031 261.378906 125.746094 257.726562 129.398438 C 254.148438 133.3125 256.921875 137.867188 256.816406 137.582031"/><path fill="#654E2D" d="M 253.488281 121.234375 C 252.335938 120.695312 250.65625 120.089844 250.300781 120.296875 C 249.722656 120.519531 248.878906 121.679688 248.34375 122.671875 C 247.203125 124.78125 246.402344 126.910156 245.734375 128.675781 C 244.417969 132.238281 243.652344 134.488281 243.320312 134.414062 C 243.011719 134.347656 243.195312 131.949219 244.125 128.175781 C 244.609375 126.292969 245.246094 124.066406 246.394531 121.652344 C 247.085938 120.496094 247.554688 119.097656 249.507812 118.105469 C 251.882812 117.578125 252.96875 118.5625 254.460938 119.054688 C 265.171875 124.488281 272.234375 130.875 271.949219 131.296875 C 271.53125 131.972656 263.667969 126.386719 253.488281 121.234375"/><path fill="#5A2A82" d="M 273.9375 127.679688 C 274.011719 127.273438 269.742188 126.390625 268.867188 127.339844 C 267.984375 128.289062 266.035156 132.515625 267.035156 133.296875 C 268.039062 134.074219 270.519531 134.472656 270.519531 134.472656 C 270.519531 134.472656 273.65625 129.195312 273.9375 127.679688"/><path fill="#7140A1" d="M 292.53125 131.800781 L 287.683594 130.042969 C 287.683594 130.042969 286 125.902344 281.226562 124.375 C 276.457031 122.84375 270.808594 128.15625 269.441406 132.246094 C 268.078125 136.335938 271.125 136.386719 271.125 136.386719 C 271.125 136.386719 263.667969 140.375 261.347656 142.234375 C 259.035156 144.101562 265.367188 148.167969 276.363281 146.21875 C 287.367188 144.277344 293.652344 132.957031 292.53125 131.800781"/><path fill="#F08521" d="M 346.933594 93.609375 C 356.78125 107.242188 352.667969 121.609375 345.101562 132.316406 C 333.878906 128.597656 336.242188 115.289062 341.246094 104.601562 C 341.246094 104.601562 307.082031 115.738281 291.96875 94.730469 C 294.183594 91.601562 296.984375 88.816406 300.359375 86.546875 C 315.273438 76.519531 335.257812 77.453125 346.933594 93.609375"/><path fill="#F4CA9D" d="M 341.246094 104.601562 C 335.574219 119.632812 337.949219 129.425781 345.101562 132.316406 C 342.882812 135.460938 340.070312 138.261719 336.691406 140.535156 C 321.777344 150.5625 301.554688 146.609375 291.523438 131.699219 C 283.757812 120.15625 284.378906 105.445312 291.96875 94.730469 C 307.082031 115.738281 341.246094 104.601562 341.246094 104.601562"/><path fill="#F4BF2C" d="M 292.339844 94.632812 C 292.074219 94.6875 302.058594 102.023438 316.714844 102.496094 C 331.144531 103.195312 342.394531 99.285156 342.261719 99.109375 C 342.25 98.847656 331 102.355469 316.761719 101.660156 C 302.332031 101.203125 292.394531 94.335938 292.339844 94.632812"/><path fill="#F4BF2C" d="M 292.867188 94.277344 C 293.097656 94.699219 300.167969 87.917969 311.359375 84.777344 C 322.664062 81.601562 332.03125 85.046875 331.941406 84.914062 C 332.257812 84.632812 322.722656 80.714844 311.136719 83.972656 C 299.675781 87.199219 292.785156 94.363281 292.867188 94.277344"/><path fill="#F4BF2C" d="M 293.269531 95.15625 C 292.839844 95.667969 303.308594 99.632812 315.414062 95.03125 C 327.199219 90.148438 337.4375 92.757812 337.195312 93.292969 C 337.773438 92.335938 327.003906 89.277344 315.171875 94.230469 C 303.214844 98.757812 293.152344 95.253906 293.269531 95.15625"/><path fill="#F4BF2C" d="M 293.007812 94.761719 C 292.894531 94.863281 295.359375 95.761719 298.882812 94.347656 C 302.375 93.226562 306.933594 90.875 312.164062 89.191406 C 322.851562 86.089844 332.085938 87.671875 332.039062 87.347656 C 332.164062 87.21875 322.875 85.226562 311.917969 88.386719 C 306.53125 90.136719 302.105469 92.539062 298.675781 93.789062 C 295.308594 95.304688 293.015625 94.636719 293.007812 94.761719"/><path fill="#F4BF2C" d="M 345.980469 130.054688 C 345.875 130.195312 350.214844 124.15625 349.257812 115.59375 C 348.382812 107.132812 343.847656 101.570312 343.820312 101.714844 C 343.632812 101.738281 347.90625 107.359375 348.757812 115.640625 C 349.707031 124.007812 345.648438 130.027344 345.980469 130.054688"/><path fill="#231F20" d="M 308.050781 97.378906 C 308.101562 97.800781 309.921875 97.382812 311.28125 98.425781 C 312.597656 99.574219 312.761719 101.429688 313.101562 101.367188 C 313.339844 101.453125 313.875 99.339844 312.011719 97.558594 C 309.839844 96.042969 307.894531 97.261719 308.050781 97.378906"/><path fill="#231F20" d="M 332.480469 117.066406 C 332.539062 117.484375 334.347656 116.992188 335.753906 117.980469 C 337.113281 119.074219 337.34375 120.929688 337.6875 120.84375 C 337.917969 120.929688 338.386719 118.78125 336.449219 117.085938 C 334.214844 115.660156 332.316406 116.957031 332.480469 117.066406"/><path fill="#E09F68" d="M 308.21875 124.320312 C 308.121094 124.347656 308.808594 125.390625 310.207031 125.515625 C 311.550781 125.613281 312.527344 125.066406 312.464844 124.964844 C 312.421875 124.839844 311.441406 125.152344 310.253906 125.066406 C 309.054688 124.960938 308.335938 124.207031 308.21875 124.320312"/><path fill="#F3A4A1" d="M 321.855469 132.089844 C 321.023438 133.140625 321.972656 135.285156 323.980469 136.871094 C 325.992188 138.453125 328.292969 138.867188 329.136719 137.804688 C 329.96875 136.746094 329.019531 134.605469 327.007812 133.023438 C 324.996094 131.453125 322.683594 131.023438 321.855469 132.089844"/><path fill="#F3A4A1" d="M 292.636719 109.078125 C 291.789062 110.128906 292.707031 112.277344 294.703125 113.886719 C 296.691406 115.488281 298.984375 115.933594 299.839844 114.882812 C 300.691406 113.835938 299.761719 111.683594 297.777344 110.078125 C 295.785156 108.472656 293.484375 108.023438 292.636719 109.078125"/><path fill="#FFF" d="M 314.863281 133.167969 C 314.863281 133.167969 310.324219 130.957031 307.175781 128.523438 C 304.019531 126.09375 300.828125 122.09375 300.828125 122.09375 C 300.828125 122.09375 296.21875 130.765625 303.730469 135.445312 C 308.925781 138.691406 314.863281 133.167969 314.863281 133.167969"/><path fill="#231F20" d="M 304.390625 110.429688 C 303.558594 111.53125 301.996094 111.753906 300.890625 110.917969 C 299.789062 110.089844 299.558594 108.523438 300.402344 107.417969 C 301.226562 106.3125 302.792969 106.097656 303.898438 106.925781 C 305.003906 107.757812 305.226562 109.324219 304.390625 110.429688"/><path fill="#231F20" d="M 328.863281 129.910156 C 328.03125 131.019531 326.46875 131.242188 325.359375 130.410156 C 324.25 129.578125 324.035156 128.007812 324.867188 126.90625 C 325.699219 125.800781 327.265625 125.582031 328.375 126.414062 C 329.472656 127.242188 329.695312 128.8125 328.863281 129.910156"/><path fill="#7140A1" d="M 348.691406 128.875 C 349.464844 129.027344 351.203125 133.222656 350.089844 133.480469 C 349.5625 133.613281 347.179688 133.183594 344.75 132.835938 C 346.671875 130.84375 348.464844 128.828125 348.691406 128.875"/><path fill="#7140A1" d="M 338.925781 132.851562 C 339.464844 132.207031 342.140625 132.472656 344.75 132.835938 C 343.382812 134.265625 341.949219 135.675781 340.972656 136.320312 C 340.066406 136.921875 337.886719 134.09375 338.925781 132.851562"/><path fill="#7140A1" d="M 294.53125 90.144531 C 294.128906 89.464844 289.601562 89.179688 289.714844 90.3125 C 289.769531 90.859375 290.9375 92.964844 292.050781 95.152344 C 293.316406 92.695312 294.644531 90.34375 294.53125 90.144531"/><path fill="#7140A1" d="M 293.917969 100.671875 C 294.351562 99.953125 293.242188 97.503906 292.050781 95.152344 C 291.144531 96.910156 290.269531 98.71875 289.972656 99.859375 C 289.691406 100.910156 293.082031 102.054688 293.917969 100.671875"/><path fill="#654E2D" d="M 112.089844 128.863281 C 116.6875 130 119.699219 132.847656 119.257812 133.257812 C 118.90625 133.617188 115.902344 131.824219 111.558594 130.734375 C 107.277344 129.535156 103.675781 128.808594 103.726562 128.261719 C 103.761719 127.738281 107.578125 127.597656 112.089844 128.863281"/><path fill="#654E2D" d="M 49.886719 150.804688 C 49.78125 150.867188 51.585938 153.390625 53.375 157.871094 C 55.175781 162.003906 56.679688 169.777344 51.800781 174.246094 C 49.554688 175.882812 46.074219 173.964844 43.691406 172.1875 C 41.183594 170.328125 39.109375 168.289062 37.40625 166.558594 C 34.015625 163.054688 32.082031 160.679688 31.996094 160.742188 C 31.902344 160.804688 33.28125 163.550781 36.273438 167.53125 C 37.785156 169.503906 39.6875 171.800781 42.265625 173.996094 C 44.617188 175.835938 48.6875 179.183594 53.324219 176.414062 C 60.171875 169.875 56.925781 161.195312 54.722656 157.242188 C 52.28125 152.828125 49.945312 150.742188 49.886719 150.804688"/><path fill="#F4CA9D" d="M 34.222656 154.9375 C 35.851562 158.484375 35.140625 162.292969 32.636719 163.4375 C 30.132812 164.582031 26.792969 162.628906 25.167969 159.082031 C 23.542969 155.535156 24.25 151.726562 26.75 150.582031 C 29.25 149.4375 32.59375 151.386719 34.222656 154.9375"/><path fill="#4ABBCC" d="M 88.597656 116.371094 C 78.238281 117.265625 77.773438 116.867188 69.960938 120.011719 C 62.273438 123.101562 59.265625 126.90625 52.75 134.09375 C 47.105469 140.316406 44.90625 159.824219 45.484375 160.910156 C 46.683594 163.160156 58.820312 161.171875 59.59375 160.929688 C 60.332031 160.703125 75.304688 190.335938 80.097656 189.441406 C 84.886719 188.546875 115.378906 156.101562 113.707031 153.332031 C 112.035156 150.566406 103.382812 137.800781 103.382812 137.800781 C 103.382812 137.800781 111.15625 130.652344 113.320312 125.199219 C 114.09375 123.246094 100.320312 115.359375 88.597656 116.371094"/><path fill="#76C9D8" d="M 57.03125 151.996094 L 59.429688 160.972656 C 59.5 160.953125 59.5625 160.941406 59.59375 160.929688 C 59.65625 160.914062 59.816406 161.101562 60.058594 161.460938 C 75.652344 156.265625 88.007812 152.089844 103.601562 138.121094 C 103.460938 137.914062 103.382812 137.800781 103.382812 137.800781 C 103.382812 137.800781 103.390625 137.792969 103.390625 137.792969 L 97.765625 130.082031 C 82.730469 142.902344 71.695312 146.972656 57.03125 151.996094"/><path fill="#42B6C9" d="M 113.707031 153.332031 C 112.109375 150.695312 104.167969 138.957031 103.441406 137.886719 C 96.550781 153.820312 81.382812 165.296875 64.015625 168.148438 C 69.019531 176.792969 76.867188 190.046875 80.097656 189.441406 C 84.886719 188.546875 115.378906 156.101562 113.707031 153.332031"/><path fill="#3AB0C5" d="M 113.707031 153.332031 C 112.796875 151.832031 109.828125 147.378906 107.308594 143.621094 C 100.273438 160.140625 86.652344 174.773438 68.949219 176.449219 C 73.214844 183.359375 77.8125 189.867188 80.097656 189.441406 C 84.886719 188.546875 115.378906 156.101562 113.707031 153.332031"/><path fill="#3AB0C5" d="M 89.40625 116.320312 C 89.136719 116.332031 88.867188 116.347656 88.597656 116.371094 C 78.238281 117.265625 77.773438 116.867188 69.960938 120.011719 C 62.273438 123.101562 59.265625 126.90625 52.75 134.09375 C 51.457031 135.515625 50.351562 137.632812 49.414062 140.0625 C 65.964844 141.636719 83.980469 131.851562 89.40625 116.320312"/><path fill="#FFF" d="M 77.976562 120.019531 C 75.347656 119.894531 67.28125 120.402344 61.941406 130.167969 L 61.316406 131.3125 L 62.089844 132.363281 C 62.277344 132.617188 66.765625 138.589844 72.753906 139.441406 C 75.496094 139.828125 78.082031 139.117188 80.4375 137.320312 C 82.789062 135.523438 83.972656 133.171875 83.972656 130.46875 C 83.972656 128.195312 83.136719 125.679688 81.453125 123.042969 C 80.589844 121.695312 79.75 120.457031 78.714844 120.113281 C 78.730469 120.113281 78.839844 120.105469 78.839844 120.105469 C 78.832031 120.101562 78.714844 120.082031 78.539062 120.0625 C 78.359375 120.019531 78.171875 119.996094 77.976562 120.019531"/><path fill="#E3B488" d="M 63.730469 131.148438 C 63.730469 131.148438 71.464844 141.59375 79.199219 135.695312 C 85.871094 130.609375 78.171875 122.03125 78.171875 122.03125 C 78.171875 122.03125 69.285156 120.996094 63.730469 131.148438"/><path fill="#98DADC" d="M 59.984375 161.304688 C 59.582031 161.53125 58.371094 158.851562 57.46875 155.472656 C 56.515625 152.082031 55.921875 149.144531 56.230469 149.070312 C 56.542969 148.992188 57.488281 151.832031 58.503906 155.171875 C 59.480469 158.464844 60.132812 161.183594 59.984375 161.304688"/><path fill="#98DADC" d="M 103.394531 137.851562 C 103.117188 138.144531 101.269531 135.957031 99.335938 132.996094 C 97.378906 130.039062 96.03125 128.351562 96.28125 128.15625 C 96.535156 127.957031 98.15625 129.417969 100.164062 132.308594 C 102.113281 135.15625 103.554688 137.667969 103.394531 137.851562"/><path fill="#996824" d="M 76.125 77.863281 C 76.125 77.863281 79.257812 78.246094 82.390625 84.328125 C 85.515625 90.417969 87.207031 94.007812 91.898438 95.59375 C 91.898438 95.59375 84.253906 101.851562 80.070312 94.613281 C 75.882812 87.378906 68.285156 76.511719 76.125 77.863281"/><path fill="#F4CA9D" d="M 28.179688 119.316406 C 35.90625 134.34375 55.699219 139.769531 70.847656 131.949219 C 85.980469 124.136719 90.746094 106.035156 83.023438 91.003906 C 75.304688 75.980469 56.765625 70.128906 41.625 77.945312 C 26.484375 85.761719 20.460938 104.28125 28.179688 119.316406"/><path fill="#996824" d="M 30.066406 108.441406 C 30.066406 108.441406 31.542969 106.351562 32.6875 113.101562 C 33.828125 119.835938 28.523438 122.3125 40.226562 132.160156 C 40.226562 132.160156 33.6875 131.917969 27.550781 126.25 C 14.234375 113.949219 22.992188 104.773438 30.066406 108.441406"/><path fill="#996824" d="M 57.769531 80.59375 C 57.769531 80.59375 60.433594 84.644531 68.832031 83.773438 C 77.234375 82.910156 75.050781 80.683594 74.402344 80.097656 C 74.402344 80.097656 78.320312 80.03125 81.117188 77.777344 C 83.921875 75.53125 82.339844 73.574219 81.746094 74 C 81.148438 74.429688 77.734375 75.488281 72.207031 71.757812 C 66.683594 68.015625 58.699219 63.128906 53.765625 70.746094 C 53.765625 70.746094 49.222656 65.714844 36.976562 70.878906 C 24.726562 76.050781 24.191406 87.058594 20.960938 93.234375 C 17.71875 99.410156 15.800781 102.011719 9.847656 102.195312 C 9.847656 102.195312 8.867188 106.402344 16.988281 106.136719 C 16.988281 106.136719 18.613281 112.777344 13.664062 118.558594 C 13.664062 118.558594 23.59375 119.4375 30.667969 110.554688 C 30.667969 110.554688 40.683594 107.085938 42.539062 93.179688 C 42.539062 93.179688 45.734375 98.785156 47.136719 98.199219 C 48.550781 97.636719 50.847656 84.582031 50.847656 84.582031 C 50.847656 84.582031 54.476562 90.417969 56.191406 89.835938 C 57.910156 89.25 57.769531 80.59375 57.769531 80.59375"/><path fill="#B48F5D" d="M 57.769531 80.59375 C 57.933594 80.570312 57.832031 78.269531 56.863281 75.609375 C 55.917969 72.933594 54.429688 71.136719 54.265625 71.261719 C 54.105469 71.382812 55.273438 73.277344 56.1875 75.855469 C 57.125 78.429688 57.539062 80.617188 57.769531 80.59375"/><path fill="#B48F5D" d="M 50.847656 84.582031 C 51.125 84.632812 51.503906 80.96875 50.609375 76.679688 C 50.367188 74.578125 49.480469 72.46875 50.296875 71.503906 C 51.15625 70.570312 52.28125 70.777344 52.226562 70.621094 C 52.300781 70.628906 51.21875 70.070312 49.910156 71.160156 C 48.714844 72.613281 49.714844 74.738281 49.90625 76.804688 C 50.78125 81.078125 50.71875 84.535156 50.847656 84.582031"/><path fill="#B48F5D" d="M 42.476562 92.753906 C 42.910156 92.742188 42.148438 86.679688 41.859375 79.277344 C 41.542969 75.546875 42.457031 72.199219 44.535156 70.785156 C 46.445312 69.320312 48.074219 69.214844 48.023438 69.09375 C 48.0625 69.023438 46.359375 68.921875 44.238281 70.378906 C 41.894531 71.753906 40.785156 75.613281 41.132812 79.292969 C 41.429688 86.816406 42.511719 92.730469 42.476562 92.753906"/><path fill="#B48F5D" d="M 14.226562 118.730469 C 14.160156 118.707031 17.730469 117.824219 21.972656 113.980469 C 26.320312 110.234375 30.035156 103 32.101562 94.714844 C 34.382812 86.488281 35.074219 78.585938 38.269531 73.941406 C 41.308594 69.011719 45.558594 69.082031 45.378906 69.070312 C 45.617188 68.871094 41.117188 68.613281 37.847656 73.648438 C 34.441406 78.421875 33.675781 86.382812 31.402344 94.527344 C 29.351562 102.769531 25.785156 109.839844 21.617188 113.609375 C 17.5625 117.464844 14.101562 118.53125 14.226562 118.730469"/><path fill="#B48F5D" d="M 31.339844 110.054688 C 31.359375 110.097656 32.933594 108.171875 33.96875 104.433594 C 35.042969 100.71875 35.710938 95.460938 36.515625 89.703125 C 37.355469 83.953125 38.117188 78.703125 39.726562 75.265625 C 41.175781 71.621094 43.6875 70.777344 43.675781 70.878906 C 43.707031 70.554688 40.855469 71.339844 39.257812 75.050781 C 37.484375 78.550781 36.636719 83.855469 35.800781 89.605469 C 34.988281 95.382812 34.410156 100.621094 33.476562 104.300781 C 32.59375 108.007812 31.199219 109.964844 31.339844 110.054688"/><path fill="#B48F5D" d="M 16.988281 106.136719 C 16.953125 106.152344 19.175781 105.46875 21.554688 102.796875 C 24.046875 100.179688 25.660156 95.394531 26.554688 90.199219 C 27.421875 84.96875 28.46875 80.304688 30.265625 77.335938 C 31.917969 74.296875 33.835938 73.132812 33.757812 73.066406 C 33.753906 72.953125 31.644531 74.015625 29.824219 77.085938 C 27.867188 80.070312 26.703125 84.886719 25.847656 90.074219 C 24.949219 95.25 23.46875 99.875 21.160156 102.46875 C 18.980469 105.128906 16.875 105.976562 16.988281 106.136719"/><path fill="#B48F5D" d="M 74.402344 80.097656 C 74.414062 79.960938 69.359375 79.53125 65.035156 75.015625 C 60.421875 70.660156 54.796875 70.71875 54.9375 71.070312 C 54.882812 71.144531 60.085938 71.335938 64.566406 75.574219 C 68.921875 80.144531 74.523438 80.417969 74.402344 80.097656"/><path fill="#B48F5D" d="M 72.691406 80.242188 C 72.691406 79.917969 68.390625 80.890625 63.554688 79.230469 C 58.664062 77.546875 56.242188 73.859375 56.125 74 C 55.878906 74.03125 58.15625 78.121094 63.308594 79.90625 C 68.421875 81.652344 72.78125 80.300781 72.691406 80.242188"/><path fill="#231F20" d="M 40.941406 109.71875 C 41.429688 109.816406 41.410156 107.324219 43.070312 106.160156 C 44.832031 105.09375 47.1875 105.878906 47.234375 105.46875 C 47.425781 105.238281 45.242188 103.886719 42.574219 105.34375 C 40.085938 107.25 40.75 109.855469 40.941406 109.71875"/><path fill="#231F20" d="M 63.765625 94.078125 C 64.25 94.210938 64.492188 91.71875 66.222656 90.667969 C 68.046875 89.707031 70.238281 90.625 70.308594 90.21875 C 70.511719 90.007812 68.421875 88.519531 65.671875 89.8125 C 63.074219 91.566406 63.578125 94.207031 63.765625 94.078125"/><path fill="#E09F68" d="M 66.410156 113.960938 C 66.40625 114.066406 67.574219 113.726562 68.113281 112.480469 C 68.609375 111.261719 68.398438 110.203125 68.28125 110.222656 C 68.152344 110.230469 68.140625 111.222656 67.703125 112.304688 C 67.25 113.378906 66.339844 113.828125 66.410156 113.960938"/><path fill="#F3A4A1" d="M 75.539062 104.222656 C 76.246094 105.3125 78.523438 105.085938 80.605469 103.714844 C 82.679688 102.347656 83.78125 100.347656 83.070312 99.261719 C 82.355469 98.167969 80.089844 98.394531 78.007812 99.765625 C 75.925781 101.140625 74.824219 103.132812 75.539062 104.222656"/><path fill="#F3A4A1" d="M 44.390625 124.234375 C 45.113281 125.324219 47.382812 125.101562 49.457031 123.722656 C 51.539062 122.359375 52.648438 120.367188 51.925781 119.277344 C 51.210938 118.183594 48.941406 118.414062 46.859375 119.785156 C 44.78125 121.152344 43.675781 123.148438 44.390625 124.234375"/><path fill="#FFF" d="M 74.085938 114.117188 L 61.648438 122.015625 C 61.648438 122.015625 65.75 130.300781 72.214844 124.941406 C 76.703125 121.226562 74.085938 114.117188 74.085938 114.117188"/><path fill="#231F20" d="M 68.515625 99.53125 C 69.214844 100.753906 70.765625 101.164062 72.003906 100.457031 C 73.222656 99.75 73.664062 98.199219 72.964844 96.980469 C 72.269531 95.753906 70.714844 95.335938 69.476562 96.046875 C 68.25 96.753906 67.8125 98.308594 68.515625 99.53125"/><path fill="#231F20" d="M 44.890625 114.820312 C 45.589844 116.042969 47.144531 116.464844 48.382812 115.761719 C 49.601562 115.050781 50.042969 113.496094 49.34375 112.277344 C 48.644531 111.058594 47.082031 110.628906 45.851562 111.339844 C 44.617188 112.046875 44.199219 113.605469 44.890625 114.820312"/><path fill="#654E2D" d="M 148.074219 85.402344 C 148.125 85.335938 145.574219 83.273438 141.628906 79.785156 C 139.667969 78.03125 137.34375 75.921875 135.019531 73.414062 C 133.902344 72.148438 132.695312 70.761719 131.964844 69.265625 C 131.109375 68.121094 132.105469 66.457031 133.054688 64.800781 C 142.378906 52.132812 152.664062 43.480469 152.292969 43.222656 C 152.382812 43.296875 141.109375 50.335938 131.257812 63.691406 C 130.328125 65.3125 128.734375 67.773438 130.128906 70.148438 C 131.132812 72.046875 132.453125 73.386719 133.695312 74.679688 C 136.246094 77.171875 138.75 79.121094 140.886719 80.703125 C 145.175781 83.84375 148.027344 85.472656 148.074219 85.402344"/><path fill="#654E2D" d="M 218.273438 96.328125 C 218.25 96.410156 220.140625 97.089844 223.046875 98.398438 C 225.570312 99.71875 230.777344 101.644531 231.695312 105.304688 C 231.320312 108.914062 226.230469 111.429688 223.863281 112.953125 C 221.097656 114.542969 219.292969 115.417969 219.320312 115.492188 C 219.355469 115.582031 221.335938 115.210938 224.378906 114.027344 C 225.894531 113.425781 227.683594 112.632812 229.539062 111.414062 C 231.183594 110.144531 233.804688 108.609375 233.796875 105.109375 C 233.238281 101.824219 230.660156 100.449219 228.839844 99.390625 C 226.875 98.351562 225.019531 97.734375 223.449219 97.285156 C 220.304688 96.40625 218.289062 96.246094 218.273438 96.328125"/><path fill="#E17B28" d="M 151.15625 75.609375 C 150.433594 75.324219 149.808594 75.097656 149.316406 74.960938 C 144.710938 73.671875 138.03125 87.039062 140.382812 90.699219 C 140.691406 91.179688 141.207031 91.738281 141.859375 92.34375 C 143.21875 85.914062 145.605469 79.792969 151.15625 75.609375"/><path fill="#F0B224" d="M 193.816406 85.40625 C 180.9375 85.179688 170.273438 84.988281 170.273438 84.988281 C 170.273438 84.988281 157.21875 78.011719 151.15625 75.609375 C 145.605469 79.792969 143.21875 85.914062 141.859375 92.34375 C 146.207031 96.347656 156.878906 102.460938 156.878906 102.460938 C 156.878906 102.460938 154.320312 121.9375 155.242188 126.78125 C 156.164062 131.625 208.976562 127.332031 210.019531 125.136719 C 211.066406 122.941406 207.949219 105.78125 207.949219 105.78125 C 207.949219 105.78125 214.105469 109.425781 218.21875 110.9375 C 221.097656 105.207031 223.128906 98.933594 225.570312 92.859375 C 219.570312 89.96875 204.101562 85.589844 193.816406 85.40625"/><path fill="#E9A227" d="M 156.226562 107.917969 C 155.539062 114.054688 154.632812 123.589844 155.242188 126.78125 C 156.164062 131.625 208.976562 127.332031 210.019531 125.136719 C 210.722656 123.65625 209.539062 115.390625 208.691406 110.148438 C 192.058594 116.175781 172.355469 115.332031 156.226562 107.917969"/><path fill="#E29A27" d="M 176.773438 94.664062 C 185.847656 96.261719 195.335938 92.84375 200.980469 86.046875 C 198.453125 85.679688 196.015625 85.445312 193.816406 85.40625 C 180.9375 85.179688 170.273438 84.988281 170.273438 84.988281 C 170.273438 84.988281 163.171875 81.195312 157.011719 78.238281 C 157.273438 88.277344 168.273438 93.355469 176.773438 94.664062"/><path fill="#E17B28" d="M 228.070312 94.667969 C 228 94.222656 227.078125 93.585938 225.570312 92.859375 C 223.128906 98.933594 221.097656 105.207031 218.21875 110.9375 C 219.738281 111.5 220.988281 111.769531 221.535156 111.453125 C 223.570312 110.28125 228.4375 96.886719 228.070312 94.667969"/><path fill="#E17B28" d="M 168.238281 84.617188 C 168.238281 84.617188 167.953125 99.90625 169.441406 100.203125 C 170.929688 100.5 177.71875 93.132812 180.316406 92.929688 C 182.914062 92.730469 187.917969 102.015625 189.550781 100.8125 C 191.1875 99.609375 192.527344 85.941406 191.699219 85.101562 C 190.875 84.261719 168.238281 84.617188 168.238281 84.617188"/><path fill="#D37022" d="M 191.699219 85.101562 C 190.875 84.261719 168.238281 84.617188 168.238281 84.617188 C 168.238281 84.617188 168.167969 88.382812 168.28125 92.210938 C 171.078125 93.4375 174.054688 94.246094 176.773438 94.664062 C 176.859375 94.679688 176.945312 94.6875 177.03125 94.703125 C 178.335938 93.722656 179.523438 92.992188 180.316406 92.929688 C 181.140625 92.867188 182.207031 93.757812 183.332031 94.96875 C 186.167969 94.742188 188.945312 94.058594 191.53125 92.972656 C 191.980469 89.246094 192.121094 85.527344 191.699219 85.101562"/><path fill="#9A6D5B" d="M 172.042969 86.054688 C 172.042969 86.054688 171.773438 94.972656 180.5 94.164062 C 189.222656 93.347656 190.082031 86.15625 190.082031 86.15625 L 172.042969 86.054688"/><path fill="#F4D97E" d="M 160.117188 94.386719 C 159.949219 94.417969 158.679688 96.09375 157.828125 98.210938 C 157.105469 99.949219 156.757812 101.839844 156.757812 102.398438 C 156.757812 102.484375 156.769531 102.539062 156.785156 102.558594 L 156.816406 102.589844 L 156.859375 102.597656 C 156.992188 102.617188 156.992188 102.617188 157.226562 101.902344 C 157.453125 101.199219 157.878906 99.894531 158.472656 98.476562 C 159.09375 96.925781 159.75 95.621094 160.066406 94.996094 C 160.324219 94.484375 160.324219 94.484375 160.21875 94.410156 L 160.175781 94.378906 L 160.117188 94.386719"/><path fill="#F4D97E" d="M 204.265625 96.394531 C 204.15625 96.464844 204.15625 96.464844 204.441406 97.117188 C 204.78125 97.890625 205.480469 99.5 206.148438 101.363281 C 206.148438 101.367188 207.480469 105.320312 207.480469 105.320312 C 207.824219 106.394531 207.824219 106.394531 207.964844 106.367188 C 208.167969 106.210938 207.675781 103.507812 206.796875 101.128906 C 205.878906 98.558594 204.53125 96.414062 204.371094 96.378906 L 204.316406 96.367188 L 204.265625 96.394531"/><path fill="#E17B28" d="M 162.847656 104.433594 C 162.226562 105.628906 162.480469 108.347656 162.480469 108.347656 C 162.480469 108.347656 172.734375 108.730469 173.042969 108.335938 C 173.351562 107.9375 173.296875 105.523438 173 105.113281 C 172.707031 104.707031 162.847656 104.433594 162.847656 104.433594"/><path fill="#E17B28" d="M 192.464844 105.167969 C 191.839844 106.367188 192.097656 109.089844 192.097656 109.089844 C 192.097656 109.089844 202.351562 109.46875 202.660156 109.074219 C 202.96875 108.675781 202.914062 106.257812 202.621094 105.851562 C 202.324219 105.445312 192.464844 105.167969 192.464844 105.167969"/><path fill="#1F3148" d="M 283.851562 225.019531 C 283.851562 283.59375 236.355469 331.074219 177.765625 331.074219 C 119.175781 331.074219 71.675781 283.59375 71.675781 225.019531 C 71.675781 166.445312 119.175781 118.964844 177.765625 118.964844 C 236.355469 118.964844 283.851562 166.445312 283.851562 225.019531"/><path fill="#294453" d="M 269.574219 225.019531 C 269.574219 275.707031 228.46875 316.800781 177.765625 316.800781 C 127.0625 316.800781 85.957031 275.707031 85.957031 225.019531 C 85.957031 174.332031 127.0625 133.242188 177.765625 133.242188 C 228.46875 133.242188 269.574219 174.332031 269.574219 225.019531"/><path fill="#FFF" d="M 105.761719 213.101562 C 105.761719 213.101562 96.773438 202.863281 99.765625 196.324219 C 102.761719 189.785156 112.121094 184.792969 123.367188 183.144531 C 139.285156 180.8125 140.609375 175.617188 129.757812 167.9375 C 118.910156 160.257812 136.582031 154.183594 145.035156 155.210938 C 145.035156 155.210938 134.210938 157.683594 136.386719 161.964844 C 138.566406 166.246094 163.527344 174.742188 150.292969 190.269531 C 142.730469 199.144531 108.632812 188.65625 105.761719 213.101562"/><path fill="#1F3148" d="M 255.46875 248.785156 L 243.351562 246.136719 L 113.007812 217.644531 C 111.960938 217.421875 109.371094 219.128906 108.386719 224.789062 C 107.238281 231.386719 108.667969 232.484375 109.707031 232.707031 L 200.253906 252.496094 C 200.25 252.5 200.246094 252.5 200.242188 252.5 L 230.296875 259.066406 L 240.488281 261.296875 L 240.488281 261.292969 L 250.671875 263.515625 C 257.636719 264.695312 260.714844 251.113281 255.46875 248.785156"/><path fill="#D8DADE" d="M 111.957031 212.523438 C 110.914062 212.304688 108.320312 214.011719 107.335938 219.667969 C 106.1875 226.265625 107.617188 227.363281 108.65625 227.589844 L 239.4375 256.171875 L 242.300781 241.015625 L 111.957031 212.523438"/><path fill="#FFF" d="M 253.296875 246.804688 C 247.703125 245.589844 137.691406 221.535156 116.515625 216.902344 C 116.382812 220.777344 115.6875 223.242188 114.546875 225.5 C 135.578125 230.089844 245.824219 254.1875 251.410156 255.410156 C 252.027344 252.511719 252.648438 249.707031 253.296875 246.804688"/><path fill="#E08823" d="M 254.417969 243.664062 L 203.257812 232.484375 C 206.539062 235.21875 202.863281 246.984375 199.191406 247.378906 L 249.621094 258.398438 C 256.585938 259.574219 259.660156 245.996094 254.417969 243.664062"/><path fill="#F19C1B" d="M 208.089844 242.292969 C 207.917969 242.886719 207.625 243.699219 207.265625 244.53125 C 217.78125 246.835938 250.578125 253.996094 250.578125 253.996094 C 250.777344 254.027344 251.34375 253.183594 251.453125 253.007812 C 252.277344 251.71875 252.578125 250.042969 252.550781 248.863281 C 252.539062 248.371094 252.441406 248.078125 252.328125 247.816406 C 250.46875 247.421875 218.566406 240.441406 208.855469 238.320312 C 208.664062 239.894531 208.382812 241.355469 208.089844 242.292969"/><path fill="#B91F2D" d="M 112.636719 220.546875 C 112.054688 223.890625 110.613281 226.425781 109.394531 226.222656 C 108.1875 226.015625 107.691406 223.132812 108.257812 219.789062 C 108.835938 216.445312 110.289062 213.902344 111.5 214.117188 C 112.699219 214.316406 113.210938 217.199219 112.636719 220.546875"/><path fill="#BF3053" d="M 81.78125 225.019531 C 81.78125 171.554688 125.292969 128.054688 178.773438 128.054688 C 202.5625 128.054688 224.355469 136.679688 241.25 150.941406 L 253.832031 141.722656 C 233.957031 123.808594 207.640625 112.90625 178.773438 112.90625 C 116.835938 112.90625 66.625 163.101562 66.625 225.019531 C 66.625 239.632812 69.425781 253.59375 74.515625 266.398438 L 88.542969 260.554688 C 84.1875 249.542969 81.78125 237.5625 81.78125 225.019531"/><path fill="#D4455E" d="M 79.105469 224.476562 C 79.105469 169.695312 123.683594 125.132812 178.476562 125.132812 C 202.347656 125.132812 225.339844 133.738281 243.402344 149.363281 L 252 143.066406 C 232.527344 125.46875 206.730469 114.738281 178.476562 114.738281 C 117.949219 114.738281 68.707031 163.964844 68.707031 224.476562 C 68.707031 238.96875 71.539062 252.816406 76.671875 265.5 L 86.304688 261.488281 C 81.597656 249.816406 79.105469 237.273438 79.105469 224.476562"/><path fill="#E1858E" d="M 139.855469 134.347656 C 169.035156 121.386719 199.632812 125.898438 218.148438 134.234375 C 237.179688 142.519531 246.277344 152.304688 246.53125 151.855469 C 246.425781 152.152344 237.007812 141.066406 217.921875 132.601562 C 199.363281 124.085938 168.621094 119.613281 139.203125 132.683594 C 109.636719 145.394531 91.492188 171.898438 85.0625 191.308594 C 78.3125 211.078125 80.199219 225.089844 79.949219 224.957031 C 80.414062 225.078125 79.542969 211.207031 86.394531 191.605469 C 92.921875 172.34375 110.527344 146.957031 139.855469 134.347656"/><g clip-path="url(#a)"><path fill="#BC2E57" d="M 253.832031 141.722656 L 241.25 150.941406 C 241.898438 151.492188 242.554688 152.03125 243.191406 152.597656 L 106.332031 289.417969 C 98.820312 280.984375 92.761719 271.226562 88.542969 260.554688 L 74.515625 266.398438 C 90.984375 307.835938 131.457031 337.132812 178.773438 337.132812 C 240.710938 337.132812 290.925781 286.9375 290.925781 225.019531 C 290.925781 191.957031 276.605469 162.242188 253.832031 141.722656 Z M 178.773438 321.980469 C 155.871094 321.980469 134.800781 314 118.1875 300.679688 L 254.457031 164.453125 C 267.78125 181.058594 275.769531 202.121094 275.769531 225.019531 C 275.769531 278.488281 232.257812 321.980469 178.773438 321.980469"/></g><path fill="#D4455E" d="M 252 143.066406 L 243.402344 149.363281 C 243.761719 149.667969 244.125 149.960938 244.480469 150.273438 L 246.363281 151.953125 L 105.933594 292.339844 L 104.257812 290.457031 C 96.570312 281.820312 90.539062 272.003906 86.304688 261.488281 L 76.671875 265.5 C 92.960938 305.742188 132.453125 334.210938 178.476562 334.210938 C 239.003906 334.210938 288.246094 284.980469 288.246094 224.476562 C 288.246094 192.214844 274.242188 163.160156 252 143.066406 Z M 178.476562 323.816406 C 156 323.816406 133.953125 316.066406 116.402344 301.988281 L 114.328125 300.328125 L 254.355469 160.347656 L 256.019531 162.421875 C 270.09375 179.96875 277.851562 202.003906 277.851562 224.476562 C 277.851562 279.253906 233.269531 323.816406 178.476562 323.816406"/><path fill="#E1858E" d="M 235.378906 305.675781 C 205.9375 326.441406 170.558594 325.710938 149.085938 318.183594 C 126.996094 310.707031 116.125 300.019531 115.945312 300.457031 C 115.984375 300.175781 126.796875 311.792969 148.96875 319.457031 C 170.507812 327.164062 206.847656 328.269531 236.53125 307.335938 C 266.503906 286.945312 278.886719 252.652344 279.304688 229.730469 C 279.976562 206.277344 272.433594 192.539062 272.816406 192.589844 C 272.234375 192.613281 278.726562 206.214844 277.90625 229.527344 C 277.34375 252.316406 265.109375 285.445312 235.378906 305.675781"/><path fill="#E1858E" d="M 185.449219 211.738281 C 152.050781 245.128906 125.453125 272.464844 125.605469 272.617188 C 125.757812 272.769531 152.785156 246.539062 186.183594 213.152344 C 219.582031 179.761719 246.074219 152.53125 245.921875 152.378906 C 245.769531 152.226562 218.847656 178.355469 185.449219 211.738281"/><path fill="#E1858E" d="M 260.542969 168.964844 C 263.527344 173.550781 265.84375 177.363281 266.074219 177.238281 C 266.226562 177.164062 264.203125 173.152344 261.191406 168.523438 C 257.96875 164.03125 255.121094 160.582031 254.90625 160.75 C 254.789062 160.851562 257.355469 164.519531 260.542969 168.964844"/><path fill="#B18473" d="M 220.558594 115.617188 C 221.386719 117.300781 219.6875 119.828125 216.773438 121.257812 C 213.855469 122.691406 210.816406 122.484375 209.992188 120.804688 C 209.164062 119.117188 210.863281 116.59375 213.78125 115.164062 C 216.699219 113.730469 219.734375 113.933594 220.558594 115.617188"/><path fill="#BE8F7F" d="M 210.699219 62.859375 C 210.589844 62.820312 210.480469 62.808594 210.367188 62.777344 C 210.40625 62.246094 210.429688 61.710938 210.441406 61.171875 C 210.730469 44.8125 197.703125 31.320312 181.339844 31.027344 C 164.980469 30.738281 151.484375 43.765625 151.191406 60.121094 C 151.175781 61.027344 151.210938 61.921875 151.273438 62.804688 C 150.9375 62.78125 150.601562 62.785156 150.261719 62.851562 C 147.972656 63.285156 146.5 65.660156 146.976562 68.15625 C 147.453125 70.644531 149.6875 72.316406 151.976562 71.882812 C 152.425781 71.796875 152.832031 71.621094 153.207031 71.402344 C 157.441406 82.261719 167.910156 90.042969 180.292969 90.261719 C 192.9375 90.488281 203.863281 82.757812 208.316406 71.683594 C 210.3125 72.003906 212.375 70.746094 213.136719 68.597656 C 213.988281 66.207031 212.898438 63.636719 210.699219 62.859375"/><path fill="#231F20" d="M 162.601562 49.214844 C 162.878906 49.507812 164.023438 48.144531 165.652344 48.152344 C 167.304688 48.277344 168.496094 49.589844 168.71875 49.339844 C 168.949219 49.269531 168.140625 47.363281 165.707031 47.078125 C 163.191406 47.171875 162.417969 49.214844 162.601562 49.214844"/><path fill="#231F20" d="M 192.421875 50.140625 C 192.699219 50.429688 193.792969 49.015625 195.421875 48.957031 C 197.085938 49.011719 198.324219 50.28125 198.539062 50.023438 C 198.757812 49.957031 197.882812 48.058594 195.441406 47.882812 C 192.925781 48.085938 192.234375 50.152344 192.421875 50.140625"/><path fill="#A16145" d="M 178.179688 69.546875 C 178.117188 69.625 179.238281 70.023438 180.375 69.316406 C 181.445312 68.617188 181.875 67.644531 181.769531 67.605469 C 181.664062 67.535156 181.097656 68.339844 180.148438 68.945312 C 179.179688 69.554688 178.203125 69.398438 178.179688 69.546875"/><path fill="#BE6B81" d="M 192.972656 67.625 C 192.945312 68.902344 194.898438 69.980469 197.328125 70.039062 C 199.757812 70.078125 201.75 69.074219 201.773438 67.789062 C 201.796875 66.511719 199.847656 65.425781 197.421875 65.382812 C 194.992188 65.34375 192.996094 66.34375 192.972656 67.625"/><path fill="#BE6B81" d="M 157.621094 66.917969 C 157.582031 68.203125 159.507812 69.304688 161.941406 69.382812 C 164.371094 69.464844 166.367188 68.480469 166.414062 67.199219 C 166.457031 65.917969 164.515625 64.8125 162.089844 64.734375 C 159.660156 64.660156 157.65625 65.632812 157.621094 66.917969"/><path fill="#FFF" d="M 188.289062 72.449219 C 188.289062 72.449219 183.582031 73.375 179.796875 73.335938 C 176.011719 73.300781 171.292969 72.09375 171.292969 72.09375 C 171.292969 72.09375 172.773438 81.316406 181.152344 80.558594 C 186.957031 80.042969 188.289062 72.449219 188.289062 72.449219"/><path fill="#231F20" d="M 167.3125 61.207031 C 167.3125 62.519531 166.253906 63.585938 164.933594 63.585938 C 163.625 63.585938 162.550781 62.527344 162.554688 61.210938 C 162.554688 59.898438 163.613281 58.839844 164.925781 58.832031 C 166.242188 58.828125 167.308594 59.890625 167.3125 61.207031"/><path fill="#231F20" d="M 197.042969 61.957031 C 197.046875 63.273438 195.992188 64.339844 194.667969 64.34375 C 193.351562 64.347656 192.289062 63.28125 192.289062 61.96875 C 192.285156 60.65625 193.347656 59.589844 194.664062 59.585938 C 195.976562 59.585938 197.042969 60.648438 197.042969 61.957031"/><path fill="#3D1A2A" d="M 178.753906 37.1875 C 164.507812 37.164062 158.96875 43.507812 157.894531 46.652344 C 156.820312 49.800781 160.644531 50.773438 158.210938 54.34375 C 155.773438 57.917969 153.859375 57.546875 154.257812 60.488281 C 154.65625 63.433594 154.960938 65.476562 153.378906 65.449219 C 151.796875 65.417969 148.996094 64.011719 149.117188 57.347656 C 149.230469 50.683594 151.851562 23.941406 181.011719 24.457031 C 210.171875 24.972656 212.023438 47.726562 212.464844 54.96875 C 212.992188 63.566406 209.316406 66.890625 206.386719 66.386719 C 203.457031 65.882812 205.695312 60.722656 205.945312 59.257812 C 206.199219 57.792969 203.421875 54.917969 204.824219 52.34375 C 206.226562 49.769531 201.132812 37.230469 178.753906 37.1875"/><path fill="#B18473" d="M 160.910156 40.007812 C 161.738281 41.691406 160.042969 44.214844 157.121094 45.648438 C 154.203125 47.078125 151.167969 46.875 150.34375 45.191406 C 149.515625 43.507812 151.210938 40.984375 154.132812 39.550781 C 157.050781 38.121094 160.085938 38.328125 160.910156 40.007812"/><path fill="#F4CA9D" d="M 119.308594 130.761719 C 120.960938 132.691406 120.113281 136.125 117.414062 138.425781 C 114.71875 140.726562 111.195312 141.023438 109.546875 139.089844 C 107.894531 137.15625 108.746094 133.722656 111.441406 131.425781 C 114.136719 129.125 117.660156 128.828125 119.308594 130.761719"/><path fill="#F4CA9D" d="M 245.855469 137.5625 C 246.914062 134.914062 246.1875 132.140625 244.238281 131.359375 C 242.285156 130.582031 239.847656 132.097656 238.789062 134.746094 C 237.730469 137.394531 238.453125 140.171875 240.40625 140.949219 C 242.359375 141.730469 244.796875 140.214844 245.855469 137.5625"/><path fill="#5A2A82" d="M 324.042969 151.929688 C 322.699219 150.273438 319.441406 154.773438 319.625 157.496094 C 319.8125 160.214844 321.367188 160.78125 322.429688 160.332031 C 323.492188 159.890625 326.34375 154.769531 324.042969 151.929688"/><path fill="#452D75" d="M 324.753906 152.75 C 323.566406 151.296875 320.84375 155.117188 321.050781 157.457031 C 321.257812 159.804688 322.609375 160.3125 323.511719 159.949219 C 324.414062 159.585938 326.78125 155.230469 324.753906 152.75"/><path fill="#654E2D" d="M 367.738281 140.894531 C 367.378906 140.285156 357.492188 146.242188 344.320312 151.082031 C 337.738281 153.472656 331.546875 154.867188 327.019531 155.078125 C 326.503906 155.105469 326.015625 155.121094 325.542969 155.128906 C 323.933594 155.148438 322.609375 155.046875 321.625 154.953125 C 321.492188 155.230469 321.378906 155.519531 321.289062 155.800781 C 322.261719 156.136719 323.636719 156.46875 325.367188 156.644531 C 325.890625 156.699219 326.449219 156.742188 327.035156 156.761719 C 331.824219 156.984375 338.375 155.773438 345.128906 153.320312 C 358.65625 148.34375 368.09375 141.382812 367.738281 140.894531"/><g clip-path="url(#b)"><path fill="#F4CA9D" d="M 373.039062 140.769531 C 371.007812 142.773438 368.167969 143.1875 366.6875 141.691406 C 365.214844 140.195312 365.664062 137.363281 367.695312 135.355469 C 369.726562 133.355469 372.566406 132.941406 374.042969 134.433594 C 375.519531 135.929688 375.070312 138.765625 373.039062 140.769531"/></g><path fill="#ECBE92" d="M 13.738281 223.832031 C 13.738281 223.832031 11.367188 220.632812 9.507812 223.042969 C 7.648438 225.453125 10.027344 232.457031 15.761719 231.5 L 13.738281 223.832031"/><path fill="#F4CA9D" d="M 13.234375 216.117188 C 10.511719 233.15625 22.125 249.175781 39.171875 251.898438 C 56.222656 254.621094 72.246094 243.007812 74.964844 225.964844 C 77.6875 208.925781 66.074219 192.90625 49.023438 190.183594 C 31.976562 187.464844 15.953125 199.074219 13.234375 216.117188"/><path fill="#DDAE1D" d="M 74.757812 227.085938 C 74.757812 227.085938 74.972656 224.941406 74.726562 217.9375 C 74.726562 217.9375 69.800781 216.28125 54.222656 212.753906 C 38.640625 209.222656 33.308594 198.59375 33.308594 198.59375 C 33.308594 198.59375 32.582031 215.660156 21.542969 218.167969 C 21.542969 218.167969 19.375 223.425781 13.425781 223.804688 C 7.480469 224.183594 3.226562 219.902344 3.285156 219.527344 C 3.34375 219.15625 7.269531 220.164062 9.761719 215.246094 C 12.257812 210.328125 9.632812 200.605469 14.460938 194.730469 C 19.292969 188.859375 28.171875 186.761719 28.171875 186.761719 C 28.171875 186.761719 25.417969 184.996094 24.109375 185.453125 C 22.800781 185.90625 21.476562 185.3125 22.125 183.617188 C 22.777344 181.914062 27.824219 178.828125 30.683594 184.125 C 30.683594 184.125 33.097656 178.53125 35.796875 178.863281 C 38.496094 179.199219 34.25 182.605469 35.292969 184.386719 C 35.292969 184.386719 43.558594 179.289062 54.710938 181.710938 C 73.257812 185.730469 75.265625 199.300781 78.492188 202.414062 C 83.394531 207.152344 84.652344 203.691406 85.976562 204.917969 C 87.300781 206.140625 85.242188 210.789062 81.011719 211.125 C 81.011719 211.125 82.71875 221.851562 74.757812 227.085938"/><path fill="#EFD795" d="M 74.324219 216.308594 C 74.394531 216.328125 73.574219 213.152344 70.738281 210.429688 C 67.902344 207.679688 64.574219 207.1875 64.601562 207.375 C 64.546875 207.480469 67.660156 208.171875 70.375 210.808594 C 73.097656 213.410156 74.121094 216.417969 74.324219 216.308594"/><path fill="#EFD795" d="M 49.566406 185.996094 C 49.589844 186.152344 51.699219 185.085938 55.214844 185.714844 C 58.789062 186.230469 63.105469 188.859375 65.765625 193.769531 C 68.773438 198.601562 73.582031 206.066406 76.625 207.546875 C 79.808594 209.171875 80.984375 211.171875 81.011719 211.125 C 81.121094 211.117188 80.007812 208.964844 76.804688 207.21875 C 73.640625 205.578125 69.164062 198.199219 66.191406 193.457031 C 63.597656 188.585938 58.898438 185.703125 55.277344 185.347656 C 51.640625 184.800781 49.519531 186.027344 49.566406 185.996094"/><path fill="#EFD795" d="M 21.671875 217.972656 C 21.761719 218.03125 22.925781 216.414062 23.652344 214.085938 C 24.414062 211.769531 24.335938 209.757812 24.183594 209.761719 C 24.042969 209.761719 23.890625 211.683594 23.152344 213.929688 C 22.449219 216.183594 21.519531 217.882812 21.671875 217.972656"/><path fill="#EFD795" d="M 37.382812 189.75 C 37.417969 190.074219 42.140625 187.34375 48.347656 188.359375 C 54.550781 189.308594 58.382812 193.097656 58.429688 192.921875 C 58.597656 192.90625 54.835938 188.835938 48.429688 187.84375 C 42 186.804688 37.273438 189.828125 37.382812 189.75"/><path fill="#EFD795" d="M 20.199219 196.878906 C 20.433594 197.027344 21.019531 194.386719 23.699219 193.097656 C 26.390625 191.941406 28.917969 192.476562 28.90625 192.289062 C 28.984375 192.199219 26.410156 191.378906 23.480469 192.617188 C 20.527344 194.066406 20.144531 196.992188 20.199219 196.878906"/><path fill="#EFD795" d="M 8.019531 217.816406 C 8.011719 217.898438 10.273438 217.105469 11.910156 214.800781 C 13.566406 212.511719 13.617188 210.113281 13.488281 210.144531 C 13.328125 210.101562 13.046875 212.34375 11.476562 214.496094 C 9.949219 216.671875 7.910156 217.632812 8.019531 217.816406"/><path fill="#231F20" d="M 63.214844 214.292969 C 62.890625 214.585938 61.765625 213.046875 60.015625 212.945312 C 58.242188 212.957031 56.875 214.28125 56.652344 214.003906 C 56.414062 213.910156 57.40625 211.917969 60.035156 211.789062 C 62.722656 212.070312 63.410156 214.304688 63.214844 214.292969"/><path fill="#231F20" d="M 30.574219 211.953125 C 30.277344 212.269531 29.066406 210.789062 27.316406 210.765625 C 25.539062 210.867188 24.242188 212.265625 24.011719 211.996094 C 23.765625 211.925781 24.65625 209.875 27.277344 209.609375 C 29.976562 209.761719 30.773438 211.960938 30.574219 211.953125"/><path fill="#E09F68" d="M 43.140625 232.496094 C 43.082031 232.585938 44.308594 232.917969 45.464844 232.066406 C 46.558594 231.230469 46.933594 230.152344 46.816406 230.121094 C 46.699219 230.050781 46.167969 230.957031 45.195312 231.6875 C 44.207031 232.421875 43.15625 232.335938 43.140625 232.496094"/><path fill="#F3A4A1" d="M 28.761719 230.511719 C 28.726562 231.882812 26.582031 232.949219 23.972656 232.886719 C 21.363281 232.808594 19.289062 231.640625 19.324219 230.265625 C 19.359375 228.886719 21.5 227.820312 24.109375 227.894531 C 26.710938 227.964844 28.800781 229.136719 28.761719 230.511719"/><path fill="#F3A4A1" d="M 68.0625 231.800781 C 68.015625 233.175781 65.878906 234.222656 63.265625 234.140625 C 60.65625 234.050781 58.585938 232.863281 58.625 231.484375 C 58.671875 230.109375 60.824219 229.066406 63.433594 229.152344 C 66.039062 229.238281 68.117188 230.421875 68.0625 231.800781"/><path fill="#FFF" d="M 52.746094 236.03125 C 52.746094 236.03125 47.742188 237.234375 43.683594 237.363281 C 39.621094 237.484375 34.511719 236.40625 34.511719 236.40625 C 34.511719 236.40625 36.507812 246.21875 45.457031 245.039062 C 51.65625 244.222656 52.746094 236.03125 52.746094 236.03125"/><path fill="#231F20" d="M 57.28125 224.933594 C 57.191406 226.332031 58.242188 227.539062 59.648438 227.628906 C 61.046875 227.722656 62.257812 226.667969 62.34375 225.265625 C 62.441406 223.871094 61.382812 222.664062 59.980469 222.570312 C 58.582031 222.476562 57.375 223.535156 57.28125 224.933594"/><path fill="#231F20" d="M 25.085938 223.929688 C 25.066406 225.339844 26.175781 226.488281 27.585938 226.511719 C 28.988281 226.53125 30.140625 225.414062 30.160156 224.011719 C 30.183594 222.609375 29.0625 221.457031 27.664062 221.4375 C 26.261719 221.417969 25.109375 222.53125 25.085938 223.929688"/><path fill="#A44895" d="M 330.855469 259.269531 C 330.855469 259.269531 333.042969 259.980469 338.382812 266.785156 C 340.59375 269.609375 342.855469 273.558594 337.636719 278.988281 C 337.636719 278.988281 335.523438 295.898438 338.390625 313.144531 C 338.390625 313.144531 308.511719 321.925781 291.097656 309.761719 C 291.097656 309.761719 296.625 302.71875 297.167969 287.277344 C 297.527344 277.074219 299.152344 272.902344 301.417969 268.15625 C 302.1875 266.542969 295.308594 264.761719 296.589844 263.21875 C 300.992188 257.949219 307.683594 253.675781 311.898438 254.171875 C 320.949219 255.222656 330.855469 259.269531 330.855469 259.269531"/><path fill="#9E4191" d="M 296.742188 292.757812 C 295.308594 304.394531 291.097656 309.761719 291.097656 309.761719 C 308.511719 321.925781 338.390625 313.144531 338.390625 313.144531 C 336.988281 304.703125 336.78125 296.351562 336.929688 290.015625 C 324.78125 295.519531 310.191406 296.253906 296.742188 292.757812"/><path fill="#963A8D" d="M 294.816406 301.78125 C 293.105469 307.199219 291.097656 309.761719 291.097656 309.761719 C 308.511719 321.925781 338.390625 313.144531 338.390625 313.144531 C 337.582031 308.28125 337.171875 303.453125 337 299.019531 C 324.050781 305.585938 309.175781 307.152344 294.816406 301.78125"/><path fill="#C17ABB" d="M 297.675781 277.363281 C 298.726562 271.871094 301.257812 268.042969 301.417969 268.15625 C 301.765625 268.3125 299.703125 272.277344 298.699219 277.566406 C 297.691406 282.859375 297.523438 287.300781 297.167969 287.277344 C 296.949219 287.28125 296.640625 282.808594 297.675781 277.363281"/><path fill="#87378A" d="M 335.222656 263.035156 C 332.175781 259.726562 330.855469 259.269531 330.855469 259.269531 C 330.855469 259.269531 320.949219 255.222656 311.898438 254.171875 C 309.246094 253.859375 305.609375 255.441406 302.179688 257.96875 C 311.65625 265.042969 324.085938 265.910156 335.222656 263.035156"/><path fill="#FFF" d="M 328.382812 257.007812 C 328.382812 257.007812 325.890625 269.253906 317.183594 266.628906 C 308.46875 264.011719 310.53125 252.683594 310.53125 252.683594 L 328.382812 257.007812"/><path fill="#9A6D5B" d="M 325.222656 259.210938 C 325.222656 259.210938 323.539062 266.003906 317.898438 264.703125 C 312.253906 263.402344 312.328125 253.859375 312.328125 253.859375 L 325.222656 259.210938"/><path fill="#654E2D" d="M 342.914062 294.496094 C 338.105469 307.839844 325.945312 309.53125 326.460938 309.496094 C 325.320312 308.640625 336.859375 304.703125 340.386719 294.132812 C 340.738281 282.601562 336.015625 272.988281 337.0625 272.808594 C 337.28125 272.625 343.246094 281.300781 342.914062 294.496094"/><path fill="#A44895" d="M 332.96875 266.390625 C 330.683594 267.703125 331.648438 271.304688 334.082031 283.183594 C 334.082031 283.183594 340.542969 278.066406 345.53125 282.390625 C 345.53125 282.390625 344.046875 275.492188 340.511719 270.335938 C 336.976562 265.183594 332.96875 266.390625 332.96875 266.390625"/><path fill="#743486" d="M 339.644531 280.109375 C 343.546875 279.570312 345.832031 282.316406 345.53125 282.390625 C 345.25 282.753906 343.054688 280.898438 339.824219 281.367188 C 336.648438 281.929688 334.292969 283.484375 334.082031 283.183594 C 333.847656 282.957031 335.980469 280.769531 339.644531 280.109375"/><path fill="#C17ABB" d="M 332.988281 274.515625 C 333.890625 279.226562 334.441406 283.113281 334.082031 283.183594 C 333.746094 283.25 332.644531 279.496094 331.734375 274.75 C 330.179688 270.054688 332.066406 265.484375 332.96875 266.390625 C 332.464844 266.40625 331.632812 269.621094 332.988281 274.515625"/><path fill="#317DBF" d="M 317.964844 312.253906 C 310.796875 311.386719 301.328125 306.675781 294.226562 302.179688 C 287.125 297.683594 279.160156 299.550781 281.183594 309.984375 C 283.210938 320.421875 298.808594 325.34375 298.808594 325.34375 C 298.808594 325.34375 329.914062 334.257812 343.222656 324.925781 C 356.53125 315.59375 345.304688 307.625 338.480469 307.804688 C 331.664062 307.984375 321.351562 312.664062 317.964844 312.253906"/><path fill="#7DB3DA" d="M 296.121094 321.15625 C 304.304688 325.292969 311.925781 325.621094 311.878906 325.332031 C 311.925781 324.898438 304.6875 324.035156 296.691406 319.984375 C 288.691406 316.042969 282.84375 311.6875 282.625 311.980469 C 282.390625 312.238281 287.964844 317.125 296.121094 321.15625"/><path fill="#654E2D" d="M 318.335938 323.003906 C 319.097656 322.777344 319.84375 322.539062 320.582031 322.304688 L 321.429688 325.199219 C 320.695312 325.4375 319.949219 325.675781 319.191406 325.902344 C 306.035156 330.015625 294.632812 328.230469 294.835938 327.535156 C 294.925781 326.566406 305.683594 326.949219 318.335938 323.003906"/><path fill="#7DB3DA" d="M 321.691406 323.332031 C 320.710938 320.125 318.753906 318.015625 318.597656 318.191406 C 318.199219 318.476562 319.535156 320.699219 320.464844 323.75 C 321.550781 326.757812 322.132812 329.3125 322.523438 329.261719 C 322.84375 329.230469 322.824219 326.480469 321.691406 323.332031"/><path fill="#654E2D" d="M 317.363281 321.839844 C 330.070312 327.472656 341.023438 329.671875 340.933594 330.566406 C 340.914062 331.351562 329.15625 330.386719 316.1875 324.632812 C 315.195312 324.207031 314.226562 323.773438 313.28125 323.351562 L 314.660156 320.671875 C 315.550781 321.058594 316.445312 321.449219 317.363281 321.839844"/><path fill="#7DB3DA" d="M 314.976562 318.539062 C 313.660156 322.027344 312.171875 324.160156 312.566406 324.425781 C 312.742188 324.589844 314.8125 322.644531 316.1875 319.003906 C 317.691406 315.402344 317.769531 312.160156 317.46875 312.140625 C 317.0625 312.078125 316.429688 315.082031 314.976562 318.539062"/><path fill="#353D6B" d="M 296.21875 327.730469 C 296.21875 327.730469 286.675781 333.691406 285.375 331.472656 C 284.066406 329.238281 283.179688 322.003906 283.953125 320.246094 C 284.71875 318.476562 297.039062 325.148438 296.21875 327.730469"/><path fill="#353D6B" d="M 339.28125 331.007812 C 339.28125 331.007812 348.527344 337.421875 349.933594 335.253906 C 351.339844 333.097656 352.574219 325.910156 351.894531 324.117188 C 351.207031 322.3125 338.582031 328.394531 339.28125 331.007812"/><path fill="#BE8F7F" d="M 316.824219 311.957031 C 315.886719 309.679688 318.070312 306.609375 321.707031 305.09375 C 325.359375 303.585938 329.078125 304.203125 330.027344 306.480469 C 330.964844 308.757812 328.78125 311.824219 325.136719 313.339844 C 321.492188 314.851562 317.777344 314.234375 316.824219 311.957031"/><path fill="#3D1A2A" d="M 349.875 266.734375 C 349.140625 266.136719 348.28125 265.832031 347.496094 265.824219 C 347.523438 265.175781 347.378906 264.476562 347.039062 263.8125 C 346.617188 262.996094 345.992188 262.390625 345.308594 262.054688 C 345.472656 261.453125 345.488281 260.757812 345.328125 260.054688 C 345.113281 259.140625 344.632812 258.375 344.03125 257.886719 C 344.371094 257.246094 344.539062 256.445312 344.445312 255.59375 C 344.242188 253.71875 342.90625 252.332031 341.457031 252.492188 C 340.015625 252.648438 339.007812 254.289062 339.210938 256.160156 C 339.328125 257.207031 339.804688 258.09375 340.449219 258.648438 C 340.097656 259.375 339.980469 260.296875 340.207031 261.25 C 340.464844 262.378906 341.136719 263.269531 341.941406 263.714844 C 341.792969 264.480469 341.921875 265.375 342.355469 266.214844 C 342.976562 267.429688 344.0625 268.183594 345.113281 268.257812 C 345.183594 269.15625 345.6875 270.113281 346.5625 270.828125 C 348.03125 272.011719 349.957031 272.050781 350.871094 270.921875 C 351.785156 269.789062 351.339844 267.917969 349.875 266.734375"/><path fill="#3D1A2A" d="M 351.746094 270.488281 C 352.171875 268.601562 355.628906 268.394531 356.699219 270.003906 C 357.773438 271.617188 359.824219 270.796875 359.824219 270.796875 C 359.824219 270.796875 358.976562 274.464844 354.976562 274.421875 C 352.105469 274.394531 351.304688 272.441406 351.746094 270.488281"/><path fill="#C94A5A" d="M 350.539062 270.84375 C 350.539062 270.84375 347.019531 271.585938 347.273438 273.277344 C 347.46875 274.554688 349.234375 274.101562 349.84375 274.449219 C 350.453125 274.800781 351.890625 276.097656 352.476562 274.789062 C 353.0625 273.476562 351.8125 271.070312 351.8125 271.070312 L 350.539062 270.84375"/><path fill="#C94A5A" d="M 351.257812 269.203125 C 351.257812 269.203125 349.414062 266.117188 350.824219 265.15625 C 351.894531 264.425781 352.761719 266.035156 353.433594 266.242188 C 354.101562 266.449219 356.03125 266.628906 355.464844 267.945312 C 354.90625 269.261719 352.289062 269.984375 352.289062 269.984375 L 351.257812 269.203125"/><path fill="#E05E6F" d="M 352.90625 270.171875 C 352.605469 271.363281 351.484375 272.351562 350.546875 271.417969 C 349.617188 270.480469 350.980469 269.136719 351.613281 268.804688 C 352.257812 268.476562 353.125 269.320312 352.90625 270.171875"/><path fill="#3D1A2A" d="M 357.855469 259.9375 C 356.96875 259.613281 356.058594 259.597656 355.3125 259.839844 C 355.128906 259.222656 354.765625 258.605469 354.226562 258.085938 C 353.570312 257.449219 352.78125 257.074219 352.023438 256.984375 C 351.984375 256.359375 351.78125 255.695312 351.398438 255.082031 C 350.902344 254.285156 350.203125 253.71875 349.472656 253.449219 C 349.585938 252.730469 349.488281 251.921875 349.121094 251.140625 C 348.324219 249.4375 346.617188 248.554688 345.296875 249.167969 C 343.980469 249.789062 343.554688 251.664062 344.355469 253.367188 C 344.800781 254.328125 345.539062 255.007812 346.332031 255.328125 C 346.226562 256.125 346.414062 257.039062 346.933594 257.867188 C 347.546875 258.851562 348.464844 259.480469 349.371094 259.640625 C 349.480469 260.410156 349.890625 261.21875 350.566406 261.871094 C 351.554688 262.820312 352.828125 263.1875 353.839844 262.917969 C 354.195312 263.742188 354.984375 264.488281 356.046875 264.878906 C 357.8125 265.527344 359.648438 264.941406 360.148438 263.582031 C 360.652344 262.214844 359.628906 260.589844 357.855469 259.9375"/><path fill="#3D1A2A" d="M 360.839844 262.886719 C 360.636719 260.964844 363.839844 259.652344 365.375 260.832031 C 366.90625 262.011719 368.585938 260.570312 368.585938 260.570312 C 368.585938 260.570312 368.96875 264.320312 365.167969 265.570312 C 362.4375 266.472656 361.054688 264.875 360.839844 262.886719"/><path fill="#C94A5A" d="M 359.8125 263.617188 C 359.8125 263.617188 356.722656 265.453125 357.507812 266.972656 C 358.101562 268.117188 359.628906 267.121094 360.320312 267.253906 C 361.007812 267.390625 362.789062 268.148438 362.917969 266.722656 C 363.046875 265.296875 361.089844 263.417969 361.089844 263.417969 L 359.8125 263.617188"/><path fill="#C94A5A" d="M 359.964844 261.828125 C 359.964844 261.828125 357.222656 259.503906 358.25 258.140625 C 359.023438 257.105469 360.363281 258.339844 361.0625 258.324219 C 361.765625 258.308594 363.648438 257.851562 363.539062 259.28125 C 363.433594 260.710938 361.1875 262.230469 361.1875 262.230469 L 359.964844 261.828125"/><path fill="#E05E6F" d="M 361.839844 262.214844 C 361.9375 263.4375 361.195312 264.734375 360.007812 264.152344 C 358.820312 263.566406 359.675781 261.855469 360.175781 261.34375 C 360.671875 260.820312 361.765625 261.335938 361.839844 262.214844"/><path fill="#3D1A2A" d="M 337.957031 254.820312 C 347.414062 253.289062 351.640625 245.808594 352.152344 244.929688 C 357.273438 236.144531 363.738281 223.402344 352.339844 209.078125 C 340.941406 194.75 328.347656 200.5 328.347656 200.5 C 328.347656 200.5 324.808594 194.015625 314.675781 195.753906 C 302.890625 197.777344 284.742188 217.199219 288.863281 235.789062 C 289 236.421875 289.148438 237.019531 289.304688 237.609375 C 289.285156 237.613281 289.269531 237.621094 289.25 237.628906 C 295.253906 256.210938 320.933594 260.34375 337.957031 254.820312"/><path fill="#6C5C6A" d="M 354.546875 231.183594 C 354.664062 231.308594 356.046875 228.699219 355.328125 224.347656 C 354.6875 220.027344 351.78125 214.578125 347.347656 209.757812 C 343.011719 204.75 337.023438 202.195312 332.65625 202.273438 C 328.273438 202.238281 325.832031 203.714844 325.925781 203.796875 C 325.308594 203.75 337.753906 199.625 346.636719 210.414062 C 350.96875 215.132812 353.871094 220.355469 354.652344 224.46875 C 355.511719 228.609375 354.4375 231.167969 354.546875 231.183594"/><path fill="#6C5C6A" d="M 342.324219 236.132812 C 342.574219 235.847656 334.730469 232.515625 329.65625 223.84375 C 324.515625 215.351562 323.597656 207.097656 323.3125 207.195312 C 323.066406 207.132812 323.554688 215.609375 328.828125 224.34375 C 334.082031 233.292969 342.414062 236.367188 342.324219 236.132812"/><path fill="#6C5C6A" d="M 349.875 242.597656 C 351.066406 238.414062 350.554688 233.542969 349.199219 228.855469 C 346.65625 219.023438 338.78125 213.246094 333.582031 209.90625 C 328.132812 206.519531 324.347656 205.257812 324.320312 205.359375 C 324.246094 205.5 327.921875 206.988281 333.207031 210.476562 C 338.285156 213.945312 345.839844 219.648438 348.273438 229.121094 C 349.59375 233.726562 350.105469 238.378906 349.003906 242.371094 C 348.097656 245.851562 346.300781 248.785156 345.40625 251.609375 C 345.761719 251.410156 348.957031 245.875 349.875 242.597656"/><path fill="#6C5C6A" d="M 295.503906 215.96875 C 295.917969 216.390625 298.492188 209.421875 306.054688 206.011719 C 313.617188 202.648438 320.550781 205.035156 320.484375 204.675781 C 320.757812 204.5625 313.683594 201.605469 305.65625 205.132812 C 297.652344 208.800781 295.433594 216.207031 295.503906 215.96875"/><path fill="#6C5C6A" d="M 304.125 202.480469 C 304.351562 202.886719 308.25 199.078125 314.265625 197.503906 C 320.871094 195.808594 323.753906 201.945312 323.699219 201.546875 C 324.386719 201.929688 321.472656 194.765625 314.066406 196.5625 C 307.609375 198.285156 304.035156 202.488281 304.125 202.480469"/><path fill="#6C5C6A" d="M 290.90625 234.761719 C 291.226562 234.707031 290.792969 231.429688 291.445312 227.449219 C 292.027344 223.449219 293.289062 220.386719 293.035156 220.269531 C 292.816406 220.144531 291.101562 223.152344 290.492188 227.296875 C 289.816406 231.460938 290.699219 234.832031 290.90625 234.761719"/><path fill="#BE8F7F" d="M 310.117188 213.191406 C 313.269531 211.808594 317.089844 210.332031 320.3125 210.746094 C 319.574219 217.105469 327.503906 233.882812 345.460938 242.644531 C 342.671875 251.421875 335.503906 258.574219 325.890625 260.910156 C 311.257812 264.457031 296.09375 255.578125 292.96875 240.851562 C 290 226.898438 300.050781 217.597656 310.117188 213.191406"/><path fill="#231F20" d="M 307.710938 226.9375 C 307.390625 227.230469 306.28125 225.664062 304.523438 225.515625 C 302.726562 225.496094 301.316406 226.796875 301.101562 226.507812 C 300.859375 226.421875 301.902344 224.441406 304.554688 224.371094 C 307.273438 224.707031 307.914062 226.960938 307.710938 226.9375"/><path fill="#231F20" d="M 334.625 228.335938 C 334.300781 228.621094 333.203125 227.042969 331.453125 226.875 C 329.65625 226.832031 328.234375 228.113281 328.023438 227.828125 C 327.773438 227.738281 328.847656 225.765625 331.5 225.730469 C 334.207031 226.097656 334.824219 228.363281 334.625 228.335938"/><path fill="#A16145" d="M 314.710938 244.796875 C 314.683594 244.878906 313.847656 244.230469 313.765625 243.140625 C 313.699219 242.085938 314.167969 241.40625 314.253906 241.457031 C 314.355469 241.503906 314.085938 242.226562 314.140625 243.15625 C 314.207031 244.089844 314.796875 244.722656 314.710938 244.796875"/><path fill="#BE6B81" d="M 304.472656 240.71875 C 304.4375 241.847656 302.640625 242.710938 300.472656 242.636719 C 298.300781 242.558594 296.578125 241.582031 296.617188 240.441406 C 296.652344 239.304688 298.441406 238.445312 300.609375 238.523438 C 302.785156 238.59375 304.515625 239.578125 304.472656 240.71875"/><path fill="#BE6B81" d="M 338.523438 242.648438 C 338.46875 243.847656 336.5625 244.738281 334.257812 244.628906 C 331.960938 244.519531 330.140625 243.460938 330.199219 242.253906 C 330.261719 241.050781 332.167969 240.164062 334.464844 240.273438 C 336.761719 240.378906 338.582031 241.441406 338.523438 242.648438"/><path fill="#FFF" d="M 309.457031 248.097656 L 324.171875 249.589844 C 324.171875 249.589844 322.234375 255.878906 315.039062 254.496094 C 310.050781 253.539062 309.457031 248.097656 309.457031 248.097656"/><path fill="#231F20" d="M 306.730469 235.964844 C 306.585938 237.222656 305.449219 238.128906 304.183594 237.980469 C 302.917969 237.828125 302.007812 236.691406 302.148438 235.445312 C 302.292969 234.1875 303.429688 233.289062 304.699219 233.425781 C 305.972656 233.578125 306.875 234.710938 306.730469 235.964844"/><path fill="#231F20" d="M 331.21875 237.511719 C 331.074219 238.769531 329.941406 239.675781 328.671875 239.527344 C 327.40625 239.371094 326.496094 238.234375 326.640625 236.992188 C 326.785156 235.730469 327.917969 234.832031 329.191406 234.972656 C 330.460938 235.121094 331.363281 236.253906 331.21875 237.511719"/><path fill="#BE8F7F" d="M 342.867188 244.253906 C 342.867188 244.253906 345.632812 239.925781 348.347656 241.742188 C 351.058594 243.554688 347.730469 250.6875 342.726562 248.726562 C 342.726562 248.726562 339.433594 246.019531 342.867188 244.253906"/></svg>